<svg style="display: none;" aria-hidden="true" xmlns="http://www.w3.org/2000/svg" xmlns:xlink="http://www.w3.org/1999/xlink"><symbol viewBox="0 0 126 14" fill="none" id="svg-bmchn" xmlns="http://www.w3.org/2000/svg">
<path d="M18.0235 0.193848H14.4492V13.805H18.0235V0.193848Z" fill="#888888"/>
<path d="M97.0557 0.193848H93.4814V13.805H97.0557V0.193848Z" fill="#888888"/>
<path d="M87.5236 0.193848V5.63829H82.7579V0.193848H79.1836V13.805H82.7579V8.36052H87.5236V13.805H91.0978V0.193848H87.5236Z" fill="#888888"/>
<path d="M125.253 2.91607V0.193848H118.105H114.53V13.805H118.105H125.253V11.0827H118.105V8.36052H124.657V5.63829H118.105V2.91607H125.253Z" fill="#888888"/>
<path d="M61.7078 13.805H65.2821L60.3178 0.193848H59.325H57.1407H56.1479L51.1836 13.805H54.7579L55.5408 11.4716H60.9249L61.7078 13.805ZM56.4542 8.7494L58.2328 3.44867L60.0115 8.7494H56.4542Z" fill="#888888"/>
<path d="M26.3634 0C26.2299 0 25.7026 0 25.5691 0C22.3887 0 19.8105 2.52461 19.8105 5.63889V8.36111C19.8105 11.4754 22.3887 14 25.5691 14C25.7026 14 26.2299 14 26.3634 14C29.5437 14 32.1219 11.4754 32.1219 8.36111V5.63889C32.1219 2.52461 29.5437 0 26.3634 0ZM26.1648 11.2778C26.0979 11.2778 25.8345 11.2778 25.7677 11.2778C24.4517 11.2778 23.3848 10.2331 23.3848 8.94444C23.3848 8.13278 23.3848 5.86723 23.3848 5.05556C23.3848 3.76689 24.4517 2.72222 25.7677 2.72222C25.8345 2.72222 26.0979 2.72222 26.1648 2.72222C27.4808 2.72222 28.5476 3.76689 28.5476 5.05556C28.5476 5.86723 28.5476 8.13278 28.5476 8.94444C28.5476 10.2331 27.4808 11.2778 26.1648 11.2778Z" fill="#888888"/>
<path d="M71.8357 11.2778C71.7687 11.2778 71.5054 11.2778 71.4386 11.2778C70.1226 11.2778 69.0557 10.2331 69.0557 8.94444V5.05556C69.0557 3.76689 70.1226 2.72222 71.4386 2.72222C71.5054 2.72222 71.7687 2.72222 71.8357 2.72222C73.042 2.72222 74.02 3.67984 74.02 4.86111H77.5624C77.2651 2.12856 74.9037 0 72.0343 0C71.9007 0 71.3735 0 71.24 0C68.0596 0 65.4814 2.52461 65.4814 5.63889V8.36111C65.4814 11.4754 68.0596 14 71.24 14C71.3735 14 71.9007 14 72.0343 14C74.9037 14 77.2651 11.8714 77.5624 9.13889H74.02C74.02 10.3202 73.042 11.2778 71.8357 11.2778Z" fill="#888888"/>
<path d="M10.2945 6.62063C11.3317 6.22532 12.0666 5.23813 12.0666 4.08274C12.0666 1.9349 10.2886 0.193848 8.09515 0.193848H0.748047V13.805H8.69086C10.8843 13.805 12.6623 12.0639 12.6623 9.91607C12.6623 8.39765 11.675 7.10518 10.2945 6.62063ZM8.49229 4.27718C8.49229 5.0289 7.86997 5.63829 7.1023 5.63829H4.32231V2.91607H7.1023C7.86997 2.91607 8.49229 3.52546 8.49229 4.27718ZM7.69801 11.0827H4.32231V8.36052H7.69801C8.46569 8.36052 9.08801 8.9699 9.08801 9.72163C9.08801 10.4733 8.46569 11.0827 7.69801 11.0827Z" fill="#888888"/>
<path d="M48.2053 0.193848H46.4181H45.4253L41.9503 10.1186L38.4753 0.193848H37.4825H35.6953H33.9082V13.805H37.4825V5.29802L40.461 13.805H40.6596H43.241H43.4396L46.4181 5.29802V13.805H49.9924V0.193848H48.2053Z" fill="#888888"/>
<path d="M108.574 0.193848V8.82528L103.411 0.193848H103.014H100.035H99.4395V13.805H103.014V5.17353L108.177 13.805H108.574H111.552H112.148V0.193848H108.574Z" fill="#888888"/>
</symbol><symbol viewBox="0 0 16 19" fill="none" id="svg-clock" xmlns="http://www.w3.org/2000/svg">
<path d="M6.33333 2.49967C6.09722 2.49967 5.89944 2.41967 5.74 2.25967C5.58 2.10023 5.5 1.90245 5.5 1.66634C5.5 1.43023 5.58 1.23217 5.74 1.07217C5.89944 0.91273 6.09722 0.833008 6.33333 0.833008H9.66667C9.90278 0.833008 10.1008 0.91273 10.2608 1.07217C10.4203 1.23217 10.5 1.43023 10.5 1.66634C10.5 1.90245 10.4203 2.10023 10.2608 2.25967C10.1008 2.41967 9.90278 2.49967 9.66667 2.49967H6.33333ZM8 11.6663C8.23611 11.6663 8.43417 11.5863 8.59417 11.4263C8.75361 11.2669 8.83333 11.0691 8.83333 10.833V7.49967C8.83333 7.26356 8.75361 7.06551 8.59417 6.90551C8.43417 6.74606 8.23611 6.66634 8 6.66634C7.76389 6.66634 7.56611 6.74606 7.40667 6.90551C7.24667 7.06551 7.16667 7.26356 7.16667 7.49967V10.833C7.16667 11.0691 7.24667 11.2669 7.40667 11.4263C7.56611 11.5863 7.76389 11.6663 8 11.6663ZM8 18.333C6.97222 18.333 6.00333 18.1352 5.09333 17.7397C4.18389 17.3436 3.38889 16.8052 2.70833 16.1247C2.02778 15.4441 1.48944 14.6491 1.09333 13.7397C0.697778 12.8297 0.5 11.8608 0.5 10.833C0.5 9.80523 0.697778 8.83634 1.09333 7.92634C1.48944 7.0169 2.02778 6.2219 2.70833 5.54134C3.38889 4.86079 4.18389 4.32273 5.09333 3.92717C6.00333 3.53106 6.97222 3.33301 8 3.33301C8.86111 3.33301 9.6875 3.4719 10.4792 3.74967C11.2708 4.02745 12.0139 4.43023 12.7083 4.95801L13.3125 4.35384C13.4653 4.20106 13.6528 4.12467 13.875 4.12467C14.0972 4.12467 14.2917 4.20801 14.4583 4.37467C14.6111 4.52745 14.6875 4.7219 14.6875 4.95801C14.6875 5.19412 14.6111 5.38856 14.4583 5.54134L13.875 6.12467C14.4028 6.81912 14.8056 7.56217 15.0833 8.35384C15.3611 9.14551 15.5 9.9719 15.5 10.833C15.5 11.8608 15.3022 12.8297 14.9067 13.7397C14.5106 14.6491 13.9722 15.4441 13.2917 16.1247C12.6111 16.8052 11.8161 17.3436 10.9067 17.7397C9.99667 18.1352 9.02778 18.333 8 18.333Z" fill="#3C3C3C"/>
</symbol><symbol viewBox="0 0 68 68" fill="none" id="svg-course-progress" xmlns="http://www.w3.org/2000/svg">
<path d="M30.5179 0.724655C27.8064 1.00276 24.7055 1.75365 21.9523 2.76873C18.9209 3.88115 18.907 3.92287 20.3671 6.85688C20.9511 8.03883 21.5629 9.13734 21.7298 9.30421C22.1192 9.73527 22.5641 9.70746 23.7878 9.19297C26.4715 8.09445 29.6141 7.427 32.8123 7.30185C42.1149 6.94031 50.9865 11.5291 56.1175 19.3716C61.9299 28.2293 61.9021 39.7846 56.048 48.6978C55.9368 48.8647 55.5335 48.531 53.9761 46.9875C52.3075 45.3328 51.9877 45.0825 51.5983 45.0825C51.3063 45.0825 51.0282 45.2076 50.8196 45.4301L50.472 45.7638V52.3132V58.8626L50.8196 59.1963L51.1534 59.5439H57.7027H64.2521L64.5858 59.1963C64.8083 58.9877 64.9335 58.7096 64.9335 58.4176C64.9335 58.0283 64.6693 57.6945 62.8338 55.8451L60.7202 53.7176L61.7492 52.1463C64.3912 48.0999 66.0737 43.6224 66.8385 38.686C67.1722 36.4751 67.1722 31.5944 66.8385 29.3556C65.7539 22.0414 62.4722 15.4781 57.369 10.3749C52.2519 5.27168 45.9111 2.08737 38.5552 0.933235C36.9005 0.669037 32.2422 0.557793 30.5179 0.724655Z" fill="#3C3C3C"/>
<path d="M2.98738 8.72002C2.7649 8.9286 2.63975 9.2067 2.63975 9.49871C2.63975 9.88806 2.90395 10.2218 4.75335 12.0712L6.85305 14.1987L6.06045 15.3806C0.248042 24.1271 -1.15639 34.9036 2.2504 44.7903C5.96311 55.5947 14.9737 63.7571 26.084 66.413C32.5917 67.9565 39.6139 67.4837 45.8156 65.092C48.6523 63.9935 48.6523 63.9796 47.2061 61.0595C46.0381 58.7095 45.7322 58.2923 45.2177 58.2923C45.023 58.2923 44.147 58.5704 43.257 58.9041C38.3624 60.7535 33.1479 61.129 28.0864 60.0026C25.8337 59.5021 24.2624 58.9598 22.1767 57.9447C11.122 52.5911 5.18441 40.5353 7.67346 28.4655C8.29919 25.3646 9.71753 21.9717 11.5252 19.2185C11.6365 19.0516 12.0397 19.3854 13.5971 20.9288C15.2657 22.5836 15.5856 22.8339 15.9749 22.8339C16.2669 22.8339 16.545 22.7087 16.7536 22.4862L17.1012 22.1525V15.6031V9.05374L16.7536 8.72002L16.4199 8.37238H9.87049H3.32111L2.98738 8.72002Z" fill="#3C3C3C"/>
<path d="M31.2563 16.4384C30.6444 16.7583 30.3663 17.2171 29.6989 18.9414L29.1705 20.2624L28.2527 20.6239L27.3211 20.9855L26.2087 20.4988C23.4554 19.3029 23.2051 19.3446 21.1889 21.3609C19.1726 23.3772 19.1309 23.6275 20.3267 26.3807L20.8134 27.4931L20.4519 28.4248L20.0903 29.3425L18.7693 29.8709C16.1273 30.8999 15.9883 31.1085 15.9883 33.9174C16.0022 36.8097 16.1412 37.0182 18.7693 38.0472L20.0903 38.5756L20.4519 39.4934L20.8134 40.425L20.3267 41.5374C19.1309 44.2907 19.1726 44.541 21.1889 46.5572C23.2051 48.5735 23.4554 48.6152 26.2087 47.4194L27.3211 46.9327L28.2527 47.2942L29.1705 47.6558L29.6989 48.9768C30.714 51.6049 30.9364 51.7578 33.787 51.7578C36.6376 51.7578 36.8601 51.6049 37.8752 48.9768L38.4036 47.6558L39.3213 47.2942L40.253 46.9327L41.3654 47.4194C44.1186 48.6152 44.3689 48.5735 46.3852 46.5572C48.4015 44.541 48.4432 44.2907 47.2473 41.5374L46.7606 40.425L47.1222 39.4934L47.4837 38.5756L48.8047 38.0472C51.4328 37.0321 51.5858 36.8097 51.5858 33.9591C51.5858 31.1085 51.4328 30.886 48.8047 29.8709L47.4837 29.3425L47.1222 28.4248L46.7606 27.4931L47.2473 26.3807C48.4432 23.6275 48.4015 23.3772 46.3852 21.3609C44.3689 19.3446 44.1186 19.3029 41.3654 20.4988L40.253 20.9855L39.3213 20.6239L38.4036 20.2624L37.8752 18.9414C36.8462 16.2994 36.6376 16.1603 33.7175 16.1742C32.0628 16.1742 31.6873 16.216 31.2563 16.4384ZM35.6503 25.2683C39.669 26.1165 42.6864 29.8431 42.6864 33.9591C42.6864 37.2407 40.7258 40.4111 37.8057 41.8573C35.1219 43.1783 32.4104 43.1783 29.7545 41.8573C26.1947 40.0774 24.2619 36.031 25.0962 32.0958C26.0974 27.3541 30.8808 24.2532 35.6503 25.2683Z" fill="#3C3C3C"/>
<path d="M32.1332 27.5055C28.6152 28.4511 26.432 32.1082 27.322 35.5567C28.2536 39.1164 31.8968 41.3274 35.387 40.4235C38.6826 39.5614 40.8518 36.3771 40.3651 33.0676C39.8089 29.1324 35.8876 26.4904 32.1332 27.5055Z" fill="#3C3C3C"/>
</symbol><symbol viewBox="0 0 54 54" fill="none" id="svg-cursor" xmlns="http://www.w3.org/2000/svg">
<g filter="url(#dfilter0_b_443_7002)">
<rect width="54" height="54" rx="27" fill="#595959" fill-opacity="0.2"/>
<path d="M30.5605 22L35.4371 26.8766L30.5605 31.7531" stroke="#F7F7F7" stroke-width="2"/>
<path d="M35 26.916L19 26.916" stroke="#F7F7F7" stroke-width="2"/>
</g>
<defs>
<filter id="dfilter0_b_443_7002" x="-15" y="-15" width="84" height="84" filterUnits="userSpaceOnUse" color-interpolation-filters="sRGB">
<feFlood flood-opacity="0" result="BackgroundImageFix"/>
<feGaussianBlur in="BackgroundImageFix" stdDeviation="7.5"/>
<feComposite in2="SourceAlpha" operator="in" result="effect1_backgroundBlur_443_7002"/>
<feBlend mode="normal" in="SourceGraphic" in2="effect1_backgroundBlur_443_7002" result="shape"/>
</filter>
</defs>
</symbol><symbol viewBox="0 0 40 1" fill="none" id="svg-line-pages" xmlns="http://www.w3.org/2000/svg">
<rect x="0.333984" y="0.666672" width="40" height="1.33333" fill="#888888"/>
</symbol><symbol viewBox="0 0 18 12" fill="none" id="svg-link-arrow" xmlns="http://www.w3.org/2000/svg">
<path d="M11.5605 1L16.4371 5.87655L11.5605 10.7531" stroke-width="2"/>
<path d="M16 5.91602L0 5.91602" stroke-width="2"/>
</symbol><symbol viewBox="0 0 26 35" id="svg-lock" xmlns="http://www.w3.org/2000/svg">
<path d="M3.25 35C2.35625 35 1.59142 34.6739 0.9555 34.0217C0.3185 33.3683 0 32.5833 0 31.6667V15C0 14.0833 0.3185 13.2983 0.9555 12.645C1.59142 11.9928 2.35625 11.6667 3.25 11.6667H4.875V8.33333C4.875 6.02778 5.66746 4.06222 7.25238 2.43667C8.83621 0.812222 10.7521 0 13 0C15.2479 0 17.1643 0.812222 18.7493 2.43667C20.3331 4.06222 21.125 6.02778 21.125 8.33333V11.6667H22.75C23.6437 11.6667 24.4091 11.9928 25.0461 12.645C25.682 13.2983 26 14.0833 26 15V31.6667C26 32.5833 25.682 33.3683 25.0461 34.0217C24.4091 34.6739 23.6437 35 22.75 35H3.25ZM13 26.6667C13.8938 26.6667 14.6591 26.3406 15.2961 25.6883C15.932 25.035 16.25 24.25 16.25 23.3333C16.25 22.4167 15.932 21.6317 15.2961 20.9783C14.6591 20.3261 13.8938 20 13 20C12.1062 20 11.3414 20.3261 10.7055 20.9783C10.0685 21.6317 9.75 22.4167 9.75 23.3333C9.75 24.25 10.0685 25.035 10.7055 25.6883C11.3414 26.3406 12.1062 26.6667 13 26.6667ZM8.125 11.6667H17.875V8.33333C17.875 6.94444 17.401 5.76389 16.4531 4.79167C15.5052 3.81944 14.3542 3.33333 13 3.33333C11.6458 3.33333 10.4948 3.81944 9.54688 4.79167C8.59896 5.76389 8.125 6.94444 8.125 8.33333V11.6667Z"/>
</symbol><symbol viewBox="0 0 198 40" id="svg-logo" xmlns="http://www.w3.org/2000/svg">
<path d="M150.31 17.0093H141.263V6.3801H134.479V32.9531H141.263V22.3239H150.31V32.9531H157.094V6.3801H150.31V17.0093Z"/>
<path d="M197.801 26.8793H190.263V32.9531H197.801V26.8793Z"/>
<path d="M66.6595 18.9272C68.6283 18.1554 70.0233 16.2281 70.0233 13.9724C70.0233 9.77916 66.6483 6.3801 62.4846 6.3801H48.5381V32.9531H63.6155C67.7791 32.9531 71.1541 29.554 71.1541 25.3608C71.154 22.3965 69.28 19.8731 66.6595 18.9272ZM55.3229 11.6948H60.5999C62.0572 11.6948 63.2384 12.8845 63.2384 14.352C63.2384 15.8196 62.0571 17.0093 60.5999 17.0093H55.3229V11.6948ZM61.7307 27.6386H55.3229V22.324H61.7307C63.1879 22.324 64.3692 23.5137 64.3692 24.9812C64.3692 26.4489 63.188 27.6386 61.7307 27.6386Z"/>
<path d="M119.776 11.315C119.903 11.315 120.402 11.315 120.53 11.315C122.819 11.315 124.676 13.1845 124.676 15.4908H131.4C130.836 10.156 126.353 6.00044 120.907 6.00044C120.653 6.00044 119.652 6.00044 119.399 6.00044C113.362 6.00044 108.468 10.9292 108.468 17.0093V22.3238C108.468 28.4039 113.362 33.3327 119.399 33.3327C119.652 33.3327 120.653 33.3327 120.907 33.3327C126.353 33.3327 130.836 29.1771 131.4 23.8423H124.676C124.676 26.1485 122.82 28.0181 120.53 28.0181C120.402 28.0181 119.903 28.0181 119.776 28.0181C117.278 28.0181 115.252 25.9786 115.252 23.4627V15.8704C115.252 13.3546 117.278 11.315 119.776 11.315Z"/>
<path d="M98.2927 6.3801H96.4081L89.8117 25.7562L83.2154 6.3801H81.3307H77.9383H74.5459V32.9531H81.3307V16.3449L86.9848 32.9531H87.3617H92.2618H92.6387L98.2927 16.3449V32.9531H105.077V6.3801H101.685H98.2927Z"/>
<path d="M178.955 23.2313L169.155 6.3801H168.401H162.747H161.616V32.9531H168.401V16.1019L178.201 32.9531H178.955H184.609H185.74V6.3801H178.955V23.2313Z"/>
<path d="M7.36297 25.7524C7.23047 25.4848 7.10641 25.2126 6.99136 24.9361L1.69922 27.3718C1.72927 27.4421 1.76038 27.512 1.7913 27.582L1.9552 27.9431C1.99339 28.025 2.03099 28.1071 2.07025 28.1884L7.36297 25.7524Z"/>
<path d="M9.59987 28.995C9.37045 28.7474 9.15033 28.4914 8.9399 28.2276L4.54297 32.0661C4.646 32.1924 4.75039 32.3174 4.85662 32.4411L4.89016 32.4801C4.9929 32.5992 5.09719 32.717 5.20284 32.8336L9.59987 28.995Z"/>
<path d="M16.2922 32.9418C15.8869 32.8426 15.4899 32.7251 15.1015 32.591L13.4619 38.216C13.5706 38.2518 13.6798 38.2866 13.7894 38.3205L14.3118 38.475C14.4249 38.5066 14.5389 38.5362 14.6528 38.5657L16.2922 32.9418Z"/>
<path d="M8.71867 11.3849C9.06489 10.928 9.43844 10.4947 9.83671 10.0872L5.43415 6.24645C5.27878 6.41152 5.1269 6.58 4.97715 6.75064L4.71991 7.04973C4.58295 7.21235 4.44832 7.37713 4.31641 7.54444L8.71867 11.3849Z"/>
<path d="M6.8163 14.8374C7.03235 14.2595 7.28484 13.7018 7.57174 13.1674L2.27243 10.7307C2.19557 10.8811 2.12045 11.0326 2.04727 11.1854L1.72722 11.8914C1.65472 12.0598 1.58455 12.2295 1.5166 12.4005L6.8163 14.8374Z"/>
<path d="M12.6579 31.4626C12.3334 31.2711 12.0176 31.0671 11.712 30.8505L8.56641 35.7814C8.60964 35.8113 8.65219 35.8417 8.69571 35.8712L9.35063 36.295C9.40423 36.3283 9.45735 36.3623 9.51133 36.3951L12.6579 31.4626Z"/>
<path d="M30.3114 27.9485C29.9652 28.4054 29.5916 28.8387 29.1934 29.2462L33.5959 33.0869C33.7513 32.9219 33.9032 32.7534 34.0529 32.5827L34.3102 32.2838C34.4471 32.1211 34.5817 31.9564 34.7137 31.789L30.3114 27.9485Z"/>
<path d="M32.2125 24.4958C31.9964 25.0737 31.7439 25.6314 31.457 26.1658L36.7563 28.6025C36.8332 28.4521 36.9083 28.3006 36.9815 28.1478L37.3016 27.4419C37.3741 27.2735 37.4442 27.1037 37.5122 26.9327L32.2125 24.4958Z"/>
<path d="M20.1989 33.317C19.7506 33.3393 19.2978 33.3392 18.8418 33.3158L18.8438 39.1785C18.9883 39.1838 19.1327 39.1878 19.2766 39.1897L19.796 39.1895C19.9311 39.1878 20.0663 39.1853 20.2009 39.1806L20.1989 33.317Z"/>
<path d="M27.5096 30.7083C27.0814 31.0228 26.6351 31.3121 26.1729 31.5747L29.3218 36.5069C29.5386 36.3786 29.7534 36.2471 29.965 36.1105L30.0096 36.0816C30.229 35.9392 30.445 35.7918 30.6586 35.6407L27.5096 30.7083Z"/>
<path d="M24.0438 32.5512C23.5826 32.716 23.1112 32.857 22.6309 32.9712L24.2727 38.5965C24.3919 38.566 24.5106 38.5345 24.629 38.5018L25.3684 38.2828C25.4748 38.2489 25.5803 38.2132 25.686 38.1774L24.0438 32.5512Z"/>
<path d="M11.5201 8.62516C11.9482 8.31064 12.3946 8.02131 12.8568 7.75873L9.70789 2.82653C9.49107 2.95479 9.27628 3.08638 9.06469 3.22294L9.02011 3.25184C8.80067 3.39426 8.58462 3.54165 8.37109 3.69276L11.5201 8.62516Z"/>
<path d="M38.7528 17.2445L38.6457 16.4956L32.8867 17.3314C32.9307 17.5871 32.9678 17.8448 32.9973 18.1043L38.7558 17.2687C38.7548 17.2605 38.7538 17.2525 38.7528 17.2445Z"/>
<path d="M0.274392 22.0894L0.381495 22.8378L6.14053 22.002C6.09652 21.7462 6.0594 21.4886 6.02993 21.2291L0.271484 22.0648C0.272454 22.073 0.273423 22.0812 0.274392 22.0894Z"/>
<path d="M31.665 13.581C31.7975 13.8486 31.9216 14.1208 32.0367 14.3973L37.3288 11.9616C37.2987 11.8913 37.2676 11.8214 37.2367 11.7514L37.0728 11.3903C37.0346 11.3084 36.997 11.2263 36.9578 11.145L31.665 13.581Z"/>
<path d="M5.97889 18.6934C6.00206 18.371 6.03598 18.0471 6.08231 17.7221C6.12864 17.3972 6.1868 17.0769 6.25465 16.7609L0.487668 15.926C0.426314 16.2438 0.372132 16.5647 0.325899 16.8888C0.279665 17.2129 0.241961 17.5361 0.211914 17.8585L5.97889 18.6934Z"/>
<path d="M33.0503 20.6399C33.0271 20.9623 32.9932 21.2861 32.9468 21.6111C32.9004 21.9361 32.8424 22.2563 32.7744 22.5723L38.5414 23.4072C38.6027 23.0894 38.6569 22.7684 38.7032 22.4444C38.7494 22.1205 38.7871 21.7971 38.8171 21.4748L33.0503 20.6399Z"/>
<path d="M18.8311 6.01636C19.2794 5.99411 19.7322 5.99421 20.1882 6.01754L20.1862 0.154872C20.0416 0.149601 19.8973 0.145599 19.7534 0.143646L19.234 0.143841C19.0988 0.145598 18.9637 0.148039 18.8291 0.152725L18.8311 6.01636Z"/>
<path d="M22.7354 6.39143C23.1407 6.4907 23.5377 6.60813 23.9261 6.74226L25.5657 1.11728C25.457 1.08146 25.3478 1.04671 25.2382 1.01274L24.7158 0.858311C24.6027 0.826683 24.4887 0.797106 24.3747 0.767529L22.7354 6.39143Z"/>
<path d="M29.4307 10.3382C29.6601 10.5859 29.8802 10.8418 30.0906 11.1057L34.4876 7.26716C34.3845 7.14084 34.2801 7.0158 34.1739 6.89212L34.1404 6.85317C34.0376 6.73408 33.9333 6.61626 33.8277 6.49961L29.4307 10.3382Z"/>
<path d="M14.9868 6.78201C15.4481 6.61714 15.9195 6.47618 16.3998 6.36197L14.758 0.736706C14.6397 0.766869 14.5218 0.798301 14.4042 0.83071L13.661 1.05073C13.5552 1.08461 13.4499 1.12004 13.3447 1.15577L14.9868 6.78201Z"/>
<path d="M26.3711 7.87059C26.6956 8.06211 27.0114 8.26613 27.317 8.48273L30.4626 3.5518C30.4194 3.52193 30.3768 3.49148 30.3333 3.462L29.6784 3.03825C29.6248 3.00497 29.5717 2.9709 29.5177 2.9381L26.3711 7.87059Z"/>
<path d="M22.9648 12.6721C23.4779 12.9291 23.9588 13.2412 24.3995 13.6016L27.5546 8.65604C27.0975 8.31702 26.6185 8.00631 26.1201 7.72616L22.9648 12.6721Z"/>
<path d="M27.2529 20.1556C27.2269 20.5779 27.1672 20.9909 27.0771 21.3924L32.8462 22.2276C32.9226 21.8214 32.9816 21.4088 33.0215 20.9907L27.2529 20.1556Z"/>
<path d="M24.8242 13.9751C25.211 14.3409 25.5601 14.7461 25.8659 15.1845L30.2743 11.3358C29.9505 10.9123 29.6026 10.5086 29.2326 10.1265L24.8242 13.9751Z"/>
<path d="M26.7868 22.387C26.6553 22.7433 26.4988 23.0873 26.3193 23.4169L31.6191 25.8538C31.7886 25.5183 31.9441 25.1745 32.0862 24.8238L26.7868 22.387Z"/>
<path d="M26.2305 15.761C26.4753 16.1869 26.6813 16.638 26.8436 17.11L32.1499 14.6678C31.9693 14.2052 31.7637 13.7554 31.5361 13.319L26.2305 15.761Z"/>
<path d="M27.0645 17.8806C27.1662 18.3187 27.233 18.7703 27.2581 19.2333L33.0272 18.396C32.9853 17.9381 32.921 17.4869 32.8353 17.0431L27.0645 17.8806Z"/>
<path d="M19.5181 11.8574C19.8466 11.8574 20.1695 11.8803 20.4873 11.9203V6.03554C20.1671 6.01279 19.844 6.0005 19.5181 6.0005C19.1921 6.0005 18.869 6.01279 18.5488 6.03554V11.9203C18.8666 11.8803 19.1896 11.8574 19.5181 11.8574Z"/>
<path d="M19.5181 27.4757C19.1896 27.4757 18.8666 27.4528 18.5488 27.4129V33.2976C18.8691 33.3203 19.1921 33.3326 19.5181 33.3326C19.844 33.3326 20.1671 33.3203 20.4873 33.2976V27.4129C20.1696 27.4528 19.8466 27.4757 19.5181 27.4757Z"/>
<path d="M23.7132 32.6651L22.0712 27.0395C21.8284 27.1248 21.5803 27.1982 21.3271 27.2592L22.9692 32.8853C23.2202 32.8191 23.4681 32.7454 23.7132 32.6651Z"/>
<path d="M24.077 25.9805C23.8371 26.1566 23.5867 26.3187 23.3271 26.4666L26.4765 31.3994C26.732 31.2454 26.9818 31.0829 27.226 30.9128L24.077 25.9805Z"/>
<path d="M25.6954 24.3847C25.4918 24.6547 25.2713 24.911 25.0352 25.1518L29.4363 28.9913C29.6656 28.744 29.8858 28.4881 30.0966 28.2242L25.6954 24.3847Z"/>
<path d="M16.9641 12.2938C17.2069 12.2085 17.455 12.1351 17.7082 12.0741L16.0662 6.44792C15.8152 6.5143 15.5673 6.588 15.3223 6.66814L16.9641 12.2938Z"/>
<path d="M14.2118 25.3583C13.8251 24.9925 13.476 24.5873 13.1702 24.1489L8.76172 27.9976C9.08555 28.4211 9.43351 28.8248 9.80348 29.2069L14.2118 25.3583Z"/>
<path d="M11.9696 21.4524C11.8678 21.0143 11.8011 20.5628 11.7759 20.0998L6.00684 20.937C6.04871 21.3949 6.11307 21.8462 6.19875 22.29L11.9696 21.4524Z"/>
<path d="M12.8042 23.5722C12.5594 23.1462 12.3534 22.6951 12.1911 22.2232L6.88477 24.6654C7.06534 25.128 7.27101 25.5778 7.49869 26.0142L12.8042 23.5722Z"/>
<path d="M18.2213 27.3654C17.6112 27.2622 17.025 27.0885 16.4723 26.8506L14.8271 32.4946C15.3933 32.7046 15.9773 32.8769 16.576 33.0101L18.2213 27.3654Z"/>
<path d="M16.0682 26.6611C15.5552 26.4041 15.0743 26.092 14.6335 25.7316L11.4785 30.6772C11.9356 31.0162 12.4146 31.3269 12.913 31.6071L16.0682 26.6611Z"/>
<path d="M11.7803 19.1777C11.8063 18.7553 11.866 18.3424 11.9561 17.9408L6.18706 17.1056C6.11058 17.5119 6.05165 17.9244 6.01172 18.3426L11.7803 19.1777Z"/>
<path d="M20.8115 11.9679C21.4216 12.0712 22.0078 12.2448 22.5605 12.4827L24.2057 6.83873C23.6395 6.62876 23.0555 6.45646 22.4568 6.32322L20.8115 11.9679Z"/>
<path d="M14.9557 13.3527C15.1955 13.1766 15.4459 13.0145 15.7055 12.8666L12.5562 7.93382C12.3007 8.08785 12.0508 8.25028 11.8066 8.42043L14.9557 13.3527Z"/>
<path d="M13.3377 14.9486C13.5414 14.6786 13.7619 14.4223 13.998 14.1815L9.59688 10.342C9.36755 10.5892 9.14734 10.8452 8.93652 11.109L13.3377 14.9486Z"/>
<path d="M12.2486 16.9462C12.3802 16.5899 12.5366 16.2459 12.7161 15.9164L7.4163 13.4794C7.24688 13.8149 7.09131 14.1587 6.94922 14.5094L12.2486 16.9462Z"/>
</symbol><symbol viewBox="0 0 43 44" fill="none" id="svg-logo-icon" xmlns="http://www.w3.org/2000/svg">
<path d="M7.9042 28.3031C7.75777 28.0073 7.62065 27.7065 7.49349 27.4009L1.64453 30.0928C1.67774 30.1706 1.71213 30.2479 1.7463 30.3252L1.92745 30.7243C1.96965 30.8148 2.01122 30.9056 2.0546 30.9954L7.9042 28.3031Z" fill="#F7F7F7"/>
<path d="M10.3751 31.8869C10.1215 31.6132 9.87826 31.3303 9.6457 31.0387L4.78613 35.2811C4.90001 35.4207 5.01538 35.5589 5.13279 35.6956L5.16985 35.7386C5.2834 35.8703 5.39867 36.0005 5.51543 36.1294L10.3751 31.8869Z" fill="#F7F7F7"/>
<path d="M17.7717 36.2491C17.3237 36.1393 16.8849 36.0096 16.4557 35.8613L14.6436 42.0781C14.7636 42.1177 14.8844 42.1561 15.0055 42.1937L15.5828 42.3644C15.7078 42.3993 15.8338 42.432 15.9598 42.4647L17.7717 36.2491Z" fill="#F7F7F7"/>
<path d="M9.40159 12.4239C9.78424 11.9188 10.1971 11.4399 10.6373 10.9896L5.77148 6.74475C5.59976 6.92719 5.4319 7.1134 5.2664 7.30198L4.98209 7.63254C4.83072 7.81228 4.68193 7.99439 4.53613 8.17931L9.40159 12.4239Z" fill="#F7F7F7"/>
<path d="M7.29774 16.2399C7.53652 15.6012 7.81558 14.9849 8.13267 14.3942L2.27578 11.7012C2.19083 11.8674 2.10781 12.0349 2.02693 12.2037L1.67321 12.9839C1.59308 13.17 1.51552 13.3577 1.44043 13.5467L7.29774 16.2399Z" fill="#F7F7F7"/>
<path d="M13.7554 34.6143C13.3968 34.4026 13.0478 34.1771 12.71 33.9377L9.2334 39.3875C9.28118 39.4205 9.3282 39.4542 9.3763 39.4867L10.1001 39.9551C10.1594 39.9919 10.2181 40.0295 10.2777 40.0658L13.7554 34.6143Z" fill="#F7F7F7"/>
<path d="M33.2669 30.7305C32.8843 31.2355 32.4714 31.7144 32.0312 32.1647L36.897 36.4096C37.0687 36.2271 37.2366 36.0409 37.4021 35.8523L37.6864 35.5219C37.8378 35.3422 37.9866 35.16 38.1324 34.9751L33.2669 30.7305Z" fill="#F7F7F7"/>
<path d="M35.3662 26.9144C35.1274 27.5531 34.8483 28.1695 34.5312 28.7601L40.3881 31.4532C40.4731 31.2869 40.5561 31.1195 40.637 30.9507L40.9907 30.1704C41.0708 29.9843 41.1484 29.7967 41.2235 29.6077L35.3662 26.9144Z" fill="#F7F7F7"/>
<path d="M22.0907 36.6638C21.5952 36.6884 21.0948 36.6883 20.5908 36.6625L20.5931 43.142C20.7528 43.1478 20.9123 43.1522 21.0714 43.1544L21.6455 43.1542C21.7948 43.1522 21.9441 43.1495 22.0929 43.1444L22.0907 36.6638Z" fill="#F7F7F7"/>
<path d="M30.1717 33.7806C29.6985 34.1282 29.2052 34.448 28.6943 34.7382L32.1746 40.1894C32.4142 40.0476 32.6516 39.9022 32.8854 39.7513L32.9347 39.7193C33.1773 39.5619 33.416 39.399 33.652 39.232L30.1717 33.7806Z" fill="#F7F7F7"/>
<path d="M26.3409 35.8174C25.8311 35.9996 25.3102 36.1554 24.7793 36.2816L26.5939 42.4988C26.7256 42.4651 26.8569 42.4302 26.9877 42.3941L27.8049 42.1521C27.9224 42.1146 28.0391 42.0752 28.1558 42.0356L26.3409 35.8174Z" fill="#F7F7F7"/>
<path d="M12.4969 9.3737C12.9701 9.0261 13.4634 8.70632 13.9743 8.41611L10.4941 2.96497C10.2544 3.10673 10.017 3.25216 9.78318 3.40309L9.7339 3.43502C9.49137 3.59243 9.2526 3.75534 9.0166 3.92234L12.4969 9.3737Z" fill="#F7F7F7"/>
<path d="M42.5966 18.9001L42.4783 18.0724L36.1133 18.9961C36.1619 19.2787 36.2029 19.5635 36.2355 19.8503L42.5998 18.9267C42.5988 18.9178 42.5977 18.9089 42.5966 18.9001Z" fill="#F7F7F7"/>
<path d="M0.0696198 24.2546L0.187992 25.0818L6.55297 24.1581C6.50433 23.8754 6.4633 23.5907 6.43074 23.3038L0.0664062 24.2274C0.0674775 24.2365 0.0685486 24.2456 0.0696198 24.2546Z" fill="#F7F7F7"/>
<path d="M34.7627 14.8511C34.9091 15.1469 35.0463 15.4477 35.1734 15.7534L41.0224 13.0614C40.9892 12.9836 40.9548 12.9064 40.9206 12.829L40.7395 12.4299C40.6972 12.3394 40.6557 12.2487 40.6123 12.1588L34.7627 14.8511Z" fill="#F7F7F7"/>
<path d="M6.37376 20.5016C6.39936 20.1452 6.43685 19.7872 6.48806 19.4281C6.53927 19.0689 6.60354 18.715 6.67853 18.3657L0.304767 17.443C0.236958 17.7943 0.177076 18.1489 0.125978 18.5071C0.0748798 18.8653 0.0332084 19.2225 0 19.5788L6.37376 20.5016Z" fill="#F7F7F7"/>
<path d="M36.2932 22.6527C36.2676 23.0091 36.2301 23.3669 36.1789 23.7261C36.1275 24.0852 36.0634 24.4392 35.9883 24.7884L42.362 25.7112C42.4299 25.3599 42.4897 25.0052 42.5408 24.6471C42.5919 24.289 42.6336 23.9317 42.6668 23.5755L36.2932 22.6527Z" fill="#F7F7F7"/>
<path d="M20.5774 6.49062C21.0729 6.46603 21.5733 6.46613 22.0773 6.49192L22.075 0.0124066C21.9153 0.0065808 21.7558 0.00215772 21.5967 0L21.0227 0.000215653C20.8733 0.0021576 20.724 0.00485511 20.5752 0.0100336L20.5774 6.49062Z" fill="#F7F7F7"/>
<path d="M24.8936 6.90508C25.3415 7.0148 25.7803 7.14458 26.2096 7.29282L28.0217 1.07601C27.9016 1.03641 27.7809 0.998007 27.6597 0.960462L27.0824 0.789787C26.9574 0.754832 26.8314 0.722143 26.7053 0.689453L24.8936 6.90508Z" fill="#F7F7F7"/>
<path d="M32.2949 11.2673C32.5485 11.541 32.7918 11.8239 33.0243 12.1155L37.8839 7.87309C37.77 7.73348 37.6546 7.59528 37.5372 7.45859L37.5002 7.41554C37.3866 7.28392 37.2714 7.1537 37.1546 7.02478L32.2949 11.2673Z" fill="#F7F7F7"/>
<path d="M16.3295 7.33701C16.8393 7.15479 17.3603 6.999 17.8912 6.87277L16.0766 0.65564C15.9458 0.688976 15.8156 0.723716 15.6856 0.759534L14.8642 1.00271C14.7472 1.04014 14.6309 1.07931 14.5146 1.11879L16.3295 7.33701Z" fill="#F7F7F7"/>
<path d="M28.9092 8.53997C29.2678 8.75164 29.6168 8.97712 29.9546 9.21652L33.4312 3.76678C33.3834 3.73376 33.3364 3.7001 33.2883 3.66752L32.5645 3.19919C32.5052 3.1624 32.4465 3.12475 32.3868 3.0885L28.9092 8.53997Z" fill="#F7F7F7"/>
<path d="M25.1465 13.8467C25.7135 14.1308 26.245 14.4757 26.7321 14.874L30.2191 9.40809C29.7139 9.0334 29.1845 8.69 28.6337 8.38037L25.1465 13.8467Z" fill="#F7F7F7"/>
<path d="M29.8846 22.1177C29.8559 22.5845 29.7899 23.0409 29.6904 23.4847L36.0664 24.4078C36.151 23.9587 36.2161 23.5028 36.2602 23.0406L29.8846 22.1177Z" fill="#F7F7F7"/>
<path d="M27.2041 15.2868C27.6315 15.6911 28.0174 16.1389 28.3554 16.6234L33.2277 12.3698C32.8698 11.9018 32.4852 11.4556 32.0763 11.0333L27.2041 15.2868Z" fill="#F7F7F7"/>
<path d="M29.3692 24.5837C29.2238 24.9775 29.0509 25.3577 28.8525 25.7219L34.71 28.4153C34.8972 28.0445 35.0691 27.6645 35.2262 27.2769L29.3692 24.5837Z" fill="#F7F7F7"/>
<path d="M28.7539 17.2604C29.0245 17.7312 29.2521 18.2297 29.4316 18.7514L35.2962 16.0522C35.0966 15.5409 34.8693 15.0438 34.6178 14.5615L28.7539 17.2604Z" fill="#F7F7F7"/>
<path d="M29.6768 19.6033C29.7892 20.0875 29.863 20.5865 29.8908 21.0982L36.2669 20.1729C36.2206 19.6668 36.1495 19.1681 36.0548 18.6776L29.6768 19.6033Z" fill="#F7F7F7"/>
<path d="M21.3359 12.9463C21.6989 12.9463 22.0559 12.9716 22.4071 13.0158V6.51187C22.0532 6.48674 21.6961 6.47314 21.3359 6.47314C20.9756 6.47314 20.6185 6.48674 20.2646 6.51187V13.0158C20.6158 12.9716 20.9728 12.9463 21.3359 12.9463Z" fill="#F7F7F7"/>
<path d="M21.3359 30.208C20.9728 30.208 20.6158 30.1827 20.2646 30.1385V36.6424C20.6186 36.6676 20.9756 36.6812 21.3359 36.6812C21.6961 36.6812 22.0532 36.6676 22.4071 36.6424V30.1385C22.056 30.1827 21.6989 30.208 21.3359 30.208Z" fill="#F7F7F7"/>
<path d="M25.972 35.9433L24.1574 29.7257C23.889 29.82 23.6148 29.9011 23.335 29.9686L25.1497 36.1867C25.4272 36.1134 25.7012 36.032 25.972 35.9433Z" fill="#F7F7F7"/>
<path d="M26.3766 28.5552C26.1114 28.7498 25.8347 28.929 25.5479 29.0924L29.0285 34.5442C29.3109 34.374 29.5871 34.1945 29.8569 34.0064L26.3766 28.5552Z" fill="#F7F7F7"/>
<path d="M28.1633 26.7915C27.9383 27.0899 27.6945 27.3732 27.4336 27.6394L32.2978 31.8828C32.5512 31.6096 32.7946 31.3267 33.0276 31.0351L28.1633 26.7915Z" fill="#F7F7F7"/>
<path d="M18.5157 13.4286C18.7841 13.3343 19.0583 13.2532 19.3381 13.1858L17.5233 6.96765C17.246 7.04101 16.972 7.12247 16.7012 7.21104L18.5157 13.4286Z" fill="#F7F7F7"/>
<path d="M15.4728 27.8677C15.0454 27.4635 14.6595 27.0156 14.3215 26.5311L9.44922 30.7847C9.80712 31.2527 10.1917 31.699 10.6006 32.1212L15.4728 27.8677Z" fill="#F7F7F7"/>
<path d="M12.9944 23.5509C12.882 23.0667 12.8082 22.5676 12.7804 22.0559L6.4043 22.9812C6.45057 23.4873 6.5217 23.9861 6.6164 24.4765L12.9944 23.5509Z" fill="#F7F7F7"/>
<path d="M13.9173 25.8938C13.6467 25.423 13.419 24.9245 13.2396 24.4028L7.375 27.102C7.57457 27.6133 7.80189 28.1104 8.05352 28.5927L13.9173 25.8938Z" fill="#F7F7F7"/>
<path d="M19.9046 30.0861C19.2303 29.9719 18.5825 29.78 17.9715 29.5171L16.1533 35.7549C16.779 35.987 17.4245 36.1774 18.0862 36.3247L19.9046 30.0861Z" fill="#F7F7F7"/>
<path d="M17.5238 29.3077C16.9568 29.0236 16.4252 28.6787 15.9382 28.2804L12.4512 33.7463C12.9564 34.121 13.4858 34.4644 14.0366 34.774L17.5238 29.3077Z" fill="#F7F7F7"/>
<path d="M12.7848 21.037C12.8135 20.5702 12.8795 20.1139 12.979 19.67L6.60297 18.7469C6.51845 19.196 6.45331 19.6519 6.40918 20.1141L12.7848 21.037Z" fill="#F7F7F7"/>
<path d="M22.7676 13.0686C23.4418 13.1827 24.0897 13.3746 24.7006 13.6375L26.5188 7.3997C25.8931 7.16764 25.2477 6.97722 24.586 6.82996L22.7676 13.0686Z" fill="#F7F7F7"/>
<path d="M16.2938 14.5989C16.559 14.4043 16.8357 14.2251 17.1225 14.0617L13.6419 8.60986C13.3595 8.78011 13.0833 8.95963 12.8135 9.14767L16.2938 14.5989Z" fill="#F7F7F7"/>
<path d="M14.5059 16.3626C14.7309 16.0642 14.9747 15.7809 15.2356 15.5147L10.3714 11.2712C10.118 11.5445 9.8746 11.8274 9.6416 12.119L14.5059 16.3626Z" fill="#F7F7F7"/>
<path d="M13.3013 18.5703C13.4467 18.1765 13.6196 17.7964 13.818 17.4321L7.96057 14.7388C7.77331 15.1096 7.60138 15.4895 7.44434 15.8772L13.3013 18.5703Z" fill="#F7F7F7"/>
</symbol><symbol viewBox="0 0 10 16" fill="none" id="svg-slider-next" xmlns="http://www.w3.org/2000/svg">
<path d="M1.41211 1.69336L7.91418 8.19543L1.41211 14.6975" stroke-width="2.66667"/>
</symbol><symbol viewBox="0 0 10 16" fill="none" id="svg-slider-prev" xmlns="http://www.w3.org/2000/svg">
<path d="M9.24805 1.69336L2.74597 8.19543L9.24805 14.6975" stroke-width="2.66667"/>
</symbol></svg>