<svg style="display: none;" aria-hidden="true" xmlns="http://www.w3.org/2000/svg" xmlns:xlink="http://www.w3.org/1999/xlink"><symbol viewBox="0 0 18 12" fill="none" id="svg-Frame_12980" xmlns="http://www.w3.org/2000/svg">
<path d="M11.5605 1L16.4371 5.87655L11.5605 10.7531" stroke="#F7F7F7" stroke-width="2"/>
<path d="M16 5.91602L0 5.91602" stroke="#F7F7F7" stroke-width="2"/>
</symbol><symbol viewBox="0 0 126 14" fill="none" id="svg-bmchn" xmlns="http://www.w3.org/2000/svg">
<path d="M18.0235 0.193848H14.4492V13.805H18.0235V0.193848Z" fill="#888888"/>
<path d="M97.0557 0.193848H93.4814V13.805H97.0557V0.193848Z" fill="#888888"/>
<path d="M87.5236 0.193848V5.63829H82.7579V0.193848H79.1836V13.805H82.7579V8.36052H87.5236V13.805H91.0978V0.193848H87.5236Z" fill="#888888"/>
<path d="M125.253 2.91607V0.193848H118.105H114.53V13.805H118.105H125.253V11.0827H118.105V8.36052H124.657V5.63829H118.105V2.91607H125.253Z" fill="#888888"/>
<path d="M61.7078 13.805H65.2821L60.3178 0.193848H59.325H57.1407H56.1479L51.1836 13.805H54.7579L55.5408 11.4716H60.9249L61.7078 13.805ZM56.4542 8.7494L58.2328 3.44867L60.0115 8.7494H56.4542Z" fill="#888888"/>
<path d="M26.3634 0C26.2299 0 25.7026 0 25.5691 0C22.3887 0 19.8105 2.52461 19.8105 5.63889V8.36111C19.8105 11.4754 22.3887 14 25.5691 14C25.7026 14 26.2299 14 26.3634 14C29.5437 14 32.1219 11.4754 32.1219 8.36111V5.63889C32.1219 2.52461 29.5437 0 26.3634 0ZM26.1648 11.2778C26.0979 11.2778 25.8345 11.2778 25.7677 11.2778C24.4517 11.2778 23.3848 10.2331 23.3848 8.94444C23.3848 8.13278 23.3848 5.86723 23.3848 5.05556C23.3848 3.76689 24.4517 2.72222 25.7677 2.72222C25.8345 2.72222 26.0979 2.72222 26.1648 2.72222C27.4808 2.72222 28.5476 3.76689 28.5476 5.05556C28.5476 5.86723 28.5476 8.13278 28.5476 8.94444C28.5476 10.2331 27.4808 11.2778 26.1648 11.2778Z" fill="#888888"/>
<path d="M71.8357 11.2778C71.7687 11.2778 71.5054 11.2778 71.4386 11.2778C70.1226 11.2778 69.0557 10.2331 69.0557 8.94444V5.05556C69.0557 3.76689 70.1226 2.72222 71.4386 2.72222C71.5054 2.72222 71.7687 2.72222 71.8357 2.72222C73.042 2.72222 74.02 3.67984 74.02 4.86111H77.5624C77.2651 2.12856 74.9037 0 72.0343 0C71.9007 0 71.3735 0 71.24 0C68.0596 0 65.4814 2.52461 65.4814 5.63889V8.36111C65.4814 11.4754 68.0596 14 71.24 14C71.3735 14 71.9007 14 72.0343 14C74.9037 14 77.2651 11.8714 77.5624 9.13889H74.02C74.02 10.3202 73.042 11.2778 71.8357 11.2778Z" fill="#888888"/>
<path d="M10.2945 6.62063C11.3317 6.22532 12.0666 5.23813 12.0666 4.08274C12.0666 1.9349 10.2886 0.193848 8.09515 0.193848H0.748047V13.805H8.69086C10.8843 13.805 12.6623 12.0639 12.6623 9.91607C12.6623 8.39765 11.675 7.10518 10.2945 6.62063ZM8.49229 4.27718C8.49229 5.0289 7.86997 5.63829 7.1023 5.63829H4.32231V2.91607H7.1023C7.86997 2.91607 8.49229 3.52546 8.49229 4.27718ZM7.69801 11.0827H4.32231V8.36052H7.69801C8.46569 8.36052 9.08801 8.9699 9.08801 9.72163C9.08801 10.4733 8.46569 11.0827 7.69801 11.0827Z" fill="#888888"/>
<path d="M48.2053 0.193848H46.4181H45.4253L41.9503 10.1186L38.4753 0.193848H37.4825H35.6953H33.9082V13.805H37.4825V5.29802L40.461 13.805H40.6596H43.241H43.4396L46.4181 5.29802V13.805H49.9924V0.193848H48.2053Z" fill="#888888"/>
<path d="M108.574 0.193848V8.82528L103.411 0.193848H103.014H100.035H99.4395V13.805H103.014V5.17353L108.177 13.805H108.574H111.552H112.148V0.193848H108.574Z" fill="#888888"/>
</symbol><symbol viewBox="0 0 68 68" fill="none" id="svg-course-progress" xmlns="http://www.w3.org/2000/svg">
<path d="M30.5179 0.724655C27.8064 1.00276 24.7055 1.75365 21.9523 2.76873C18.9209 3.88115 18.907 3.92287 20.3671 6.85688C20.9511 8.03883 21.5629 9.13734 21.7298 9.30421C22.1192 9.73527 22.5641 9.70746 23.7878 9.19297C26.4715 8.09445 29.6141 7.427 32.8123 7.30185C42.1149 6.94031 50.9865 11.5291 56.1175 19.3716C61.9299 28.2293 61.9021 39.7846 56.048 48.6978C55.9368 48.8647 55.5335 48.531 53.9761 46.9875C52.3075 45.3328 51.9877 45.0825 51.5983 45.0825C51.3063 45.0825 51.0282 45.2076 50.8196 45.4301L50.472 45.7638V52.3132V58.8626L50.8196 59.1963L51.1534 59.5439H57.7027H64.2521L64.5858 59.1963C64.8083 58.9877 64.9335 58.7096 64.9335 58.4176C64.9335 58.0283 64.6693 57.6945 62.8338 55.8451L60.7202 53.7176L61.7492 52.1463C64.3912 48.0999 66.0737 43.6224 66.8385 38.686C67.1722 36.4751 67.1722 31.5944 66.8385 29.3556C65.7539 22.0414 62.4722 15.4781 57.369 10.3749C52.2519 5.27168 45.9111 2.08737 38.5552 0.933235C36.9005 0.669037 32.2422 0.557793 30.5179 0.724655Z" fill="#3C3C3C"/>
<path d="M2.98738 8.72002C2.7649 8.9286 2.63975 9.2067 2.63975 9.49871C2.63975 9.88806 2.90395 10.2218 4.75335 12.0712L6.85305 14.1987L6.06045 15.3806C0.248042 24.1271 -1.15639 34.9036 2.2504 44.7903C5.96311 55.5947 14.9737 63.7571 26.084 66.413C32.5917 67.9565 39.6139 67.4837 45.8156 65.092C48.6523 63.9935 48.6523 63.9796 47.2061 61.0595C46.0381 58.7095 45.7322 58.2923 45.2177 58.2923C45.023 58.2923 44.147 58.5704 43.257 58.9041C38.3624 60.7535 33.1479 61.129 28.0864 60.0026C25.8337 59.5021 24.2624 58.9598 22.1767 57.9447C11.122 52.5911 5.18441 40.5353 7.67346 28.4655C8.29919 25.3646 9.71753 21.9717 11.5252 19.2185C11.6365 19.0516 12.0397 19.3854 13.5971 20.9288C15.2657 22.5836 15.5856 22.8339 15.9749 22.8339C16.2669 22.8339 16.545 22.7087 16.7536 22.4862L17.1012 22.1525V15.6031V9.05374L16.7536 8.72002L16.4199 8.37238H9.87049H3.32111L2.98738 8.72002Z" fill="#3C3C3C"/>
<path d="M31.2563 16.4384C30.6444 16.7583 30.3663 17.2171 29.6989 18.9414L29.1705 20.2624L28.2527 20.6239L27.3211 20.9855L26.2087 20.4988C23.4554 19.3029 23.2051 19.3446 21.1889 21.3609C19.1726 23.3772 19.1309 23.6275 20.3267 26.3807L20.8134 27.4931L20.4519 28.4248L20.0903 29.3425L18.7693 29.8709C16.1273 30.8999 15.9883 31.1085 15.9883 33.9174C16.0022 36.8097 16.1412 37.0182 18.7693 38.0472L20.0903 38.5756L20.4519 39.4934L20.8134 40.425L20.3267 41.5374C19.1309 44.2907 19.1726 44.541 21.1889 46.5572C23.2051 48.5735 23.4554 48.6152 26.2087 47.4194L27.3211 46.9327L28.2527 47.2942L29.1705 47.6558L29.6989 48.9768C30.714 51.6049 30.9364 51.7578 33.787 51.7578C36.6376 51.7578 36.8601 51.6049 37.8752 48.9768L38.4036 47.6558L39.3213 47.2942L40.253 46.9327L41.3654 47.4194C44.1186 48.6152 44.3689 48.5735 46.3852 46.5572C48.4015 44.541 48.4432 44.2907 47.2473 41.5374L46.7606 40.425L47.1222 39.4934L47.4837 38.5756L48.8047 38.0472C51.4328 37.0321 51.5858 36.8097 51.5858 33.9591C51.5858 31.1085 51.4328 30.886 48.8047 29.8709L47.4837 29.3425L47.1222 28.4248L46.7606 27.4931L47.2473 26.3807C48.4432 23.6275 48.4015 23.3772 46.3852 21.3609C44.3689 19.3446 44.1186 19.3029 41.3654 20.4988L40.253 20.9855L39.3213 20.6239L38.4036 20.2624L37.8752 18.9414C36.8462 16.2994 36.6376 16.1603 33.7175 16.1742C32.0628 16.1742 31.6873 16.216 31.2563 16.4384ZM35.6503 25.2683C39.669 26.1165 42.6864 29.8431 42.6864 33.9591C42.6864 37.2407 40.7258 40.4111 37.8057 41.8573C35.1219 43.1783 32.4104 43.1783 29.7545 41.8573C26.1947 40.0774 24.2619 36.031 25.0962 32.0958C26.0974 27.3541 30.8808 24.2532 35.6503 25.2683Z" fill="#3C3C3C"/>
<path d="M32.1332 27.5055C28.6152 28.4511 26.432 32.1082 27.322 35.5567C28.2536 39.1164 31.8968 41.3274 35.387 40.4235C38.6826 39.5614 40.8518 36.3771 40.3651 33.0676C39.8089 29.1324 35.8876 26.4904 32.1332 27.5055Z" fill="#3C3C3C"/>
</symbol><symbol viewBox="0 0 41 2" fill="none" id="svg-line-pages" xmlns="http://www.w3.org/2000/svg">
<rect x="0.333984" y="0.666672" width="40" height="1.33333" fill="#888888"/>
</symbol><symbol viewBox="0 0 18 12" fill="none" id="svg-link-arrow" xmlns="http://www.w3.org/2000/svg">
<path d="M11.5605 1L16.4371 5.87655L11.5605 10.7531" stroke-width="2"/>
<path d="M16 5.91602L0 5.91602" stroke-width="2"/>
</symbol><symbol viewBox="0 0 26 35" id="svg-lock" xmlns="http://www.w3.org/2000/svg">
<path d="M3.25 35C2.35625 35 1.59142 34.6739 0.9555 34.0217C0.3185 33.3683 0 32.5833 0 31.6667V15C0 14.0833 0.3185 13.2983 0.9555 12.645C1.59142 11.9928 2.35625 11.6667 3.25 11.6667H4.875V8.33333C4.875 6.02778 5.66746 4.06222 7.25238 2.43667C8.83621 0.812222 10.7521 0 13 0C15.2479 0 17.1643 0.812222 18.7493 2.43667C20.3331 4.06222 21.125 6.02778 21.125 8.33333V11.6667H22.75C23.6437 11.6667 24.4091 11.9928 25.0461 12.645C25.682 13.2983 26 14.0833 26 15V31.6667C26 32.5833 25.682 33.3683 25.0461 34.0217C24.4091 34.6739 23.6437 35 22.75 35H3.25ZM13 26.6667C13.8938 26.6667 14.6591 26.3406 15.2961 25.6883C15.932 25.035 16.25 24.25 16.25 23.3333C16.25 22.4167 15.932 21.6317 15.2961 20.9783C14.6591 20.3261 13.8938 20 13 20C12.1062 20 11.3414 20.3261 10.7055 20.9783C10.0685 21.6317 9.75 22.4167 9.75 23.3333C9.75 24.25 10.0685 25.035 10.7055 25.6883C11.3414 26.3406 12.1062 26.6667 13 26.6667ZM8.125 11.6667H17.875V8.33333C17.875 6.94444 17.401 5.76389 16.4531 4.79167C15.5052 3.81944 14.3542 3.33333 13 3.33333C11.6458 3.33333 10.4948 3.81944 9.54688 4.79167C8.59896 5.76389 8.125 6.94444 8.125 8.33333V11.6667Z"/>
</symbol><symbol viewBox="0 0 43 44" fill="none" id="svg-logo-icon" xmlns="http://www.w3.org/2000/svg">
<path d="M7.9042 28.3031C7.75777 28.0073 7.62065 27.7065 7.49349 27.4009L1.64453 30.0928C1.67774 30.1706 1.71213 30.2479 1.7463 30.3252L1.92745 30.7243C1.96965 30.8148 2.01122 30.9056 2.0546 30.9954L7.9042 28.3031Z" fill="#F7F7F7"/>
<path d="M10.3751 31.8869C10.1215 31.6132 9.87826 31.3303 9.6457 31.0387L4.78613 35.2811C4.90001 35.4207 5.01538 35.5589 5.13279 35.6956L5.16985 35.7386C5.2834 35.8703 5.39867 36.0005 5.51543 36.1294L10.3751 31.8869Z" fill="#F7F7F7"/>
<path d="M17.7717 36.2491C17.3237 36.1393 16.8849 36.0096 16.4557 35.8613L14.6436 42.0781C14.7636 42.1177 14.8844 42.1561 15.0055 42.1937L15.5828 42.3644C15.7078 42.3993 15.8338 42.432 15.9598 42.4647L17.7717 36.2491Z" fill="#F7F7F7"/>
<path d="M9.40159 12.4239C9.78424 11.9188 10.1971 11.4399 10.6373 10.9896L5.77148 6.74475C5.59976 6.92719 5.4319 7.1134 5.2664 7.30198L4.98209 7.63254C4.83072 7.81228 4.68193 7.99439 4.53613 8.17931L9.40159 12.4239Z" fill="#F7F7F7"/>
<path d="M7.29774 16.2399C7.53652 15.6012 7.81558 14.9849 8.13267 14.3942L2.27578 11.7012C2.19083 11.8674 2.10781 12.0349 2.02693 12.2037L1.67321 12.9839C1.59308 13.17 1.51552 13.3577 1.44043 13.5467L7.29774 16.2399Z" fill="#F7F7F7"/>
<path d="M13.7554 34.6143C13.3968 34.4026 13.0478 34.1771 12.71 33.9377L9.2334 39.3875C9.28118 39.4205 9.3282 39.4542 9.3763 39.4867L10.1001 39.9551C10.1594 39.9919 10.2181 40.0295 10.2777 40.0658L13.7554 34.6143Z" fill="#F7F7F7"/>
<path d="M33.2669 30.7305C32.8843 31.2355 32.4714 31.7144 32.0312 32.1647L36.897 36.4096C37.0687 36.2271 37.2366 36.0409 37.4021 35.8523L37.6864 35.5219C37.8378 35.3422 37.9866 35.16 38.1324 34.9751L33.2669 30.7305Z" fill="#F7F7F7"/>
<path d="M35.3662 26.9144C35.1274 27.5531 34.8483 28.1695 34.5312 28.7601L40.3881 31.4532C40.4731 31.2869 40.5561 31.1195 40.637 30.9507L40.9907 30.1704C41.0708 29.9843 41.1484 29.7967 41.2235 29.6077L35.3662 26.9144Z" fill="#F7F7F7"/>
<path d="M22.0907 36.6638C21.5952 36.6884 21.0948 36.6883 20.5908 36.6625L20.5931 43.142C20.7528 43.1478 20.9123 43.1522 21.0714 43.1544L21.6455 43.1542C21.7948 43.1522 21.9441 43.1495 22.0929 43.1444L22.0907 36.6638Z" fill="#F7F7F7"/>
<path d="M30.1717 33.7806C29.6985 34.1282 29.2052 34.448 28.6943 34.7382L32.1746 40.1894C32.4142 40.0476 32.6516 39.9022 32.8854 39.7513L32.9347 39.7193C33.1773 39.5619 33.416 39.399 33.652 39.232L30.1717 33.7806Z" fill="#F7F7F7"/>
<path d="M26.3409 35.8174C25.8311 35.9996 25.3102 36.1554 24.7793 36.2816L26.5939 42.4988C26.7256 42.4651 26.8569 42.4302 26.9877 42.3941L27.8049 42.1521C27.9224 42.1146 28.0391 42.0752 28.1558 42.0356L26.3409 35.8174Z" fill="#F7F7F7"/>
<path d="M12.4969 9.3737C12.9701 9.0261 13.4634 8.70632 13.9743 8.41611L10.4941 2.96497C10.2544 3.10673 10.017 3.25216 9.78318 3.40309L9.7339 3.43502C9.49137 3.59243 9.2526 3.75534 9.0166 3.92234L12.4969 9.3737Z" fill="#F7F7F7"/>
<path d="M42.5966 18.9001L42.4783 18.0724L36.1133 18.9961C36.1619 19.2787 36.2029 19.5635 36.2355 19.8503L42.5998 18.9267C42.5988 18.9178 42.5977 18.9089 42.5966 18.9001Z" fill="#F7F7F7"/>
<path d="M0.0696198 24.2546L0.187992 25.0818L6.55297 24.1581C6.50433 23.8754 6.4633 23.5907 6.43074 23.3038L0.0664062 24.2274C0.0674775 24.2365 0.0685486 24.2456 0.0696198 24.2546Z" fill="#F7F7F7"/>
<path d="M34.7627 14.8511C34.9091 15.1469 35.0463 15.4477 35.1734 15.7534L41.0224 13.0614C40.9892 12.9836 40.9548 12.9064 40.9206 12.829L40.7395 12.4299C40.6972 12.3394 40.6557 12.2487 40.6123 12.1588L34.7627 14.8511Z" fill="#F7F7F7"/>
<path d="M6.37376 20.5016C6.39936 20.1452 6.43685 19.7872 6.48806 19.4281C6.53927 19.0689 6.60354 18.715 6.67853 18.3657L0.304767 17.443C0.236958 17.7943 0.177076 18.1489 0.125978 18.5071C0.0748798 18.8653 0.0332084 19.2225 0 19.5788L6.37376 20.5016Z" fill="#F7F7F7"/>
<path d="M36.2932 22.6527C36.2676 23.0091 36.2301 23.3669 36.1789 23.7261C36.1275 24.0852 36.0634 24.4392 35.9883 24.7884L42.362 25.7112C42.4299 25.3599 42.4897 25.0052 42.5408 24.6471C42.5919 24.289 42.6336 23.9317 42.6668 23.5755L36.2932 22.6527Z" fill="#F7F7F7"/>
<path d="M20.5774 6.49062C21.0729 6.46603 21.5733 6.46613 22.0773 6.49192L22.075 0.0124066C21.9153 0.0065808 21.7558 0.00215772 21.5967 0L21.0227 0.000215653C20.8733 0.0021576 20.724 0.00485511 20.5752 0.0100336L20.5774 6.49062Z" fill="#F7F7F7"/>
<path d="M24.8936 6.90508C25.3415 7.0148 25.7803 7.14458 26.2096 7.29282L28.0217 1.07601C27.9016 1.03641 27.7809 0.998007 27.6597 0.960462L27.0824 0.789787C26.9574 0.754832 26.8314 0.722143 26.7053 0.689453L24.8936 6.90508Z" fill="#F7F7F7"/>
<path d="M32.2949 11.2673C32.5485 11.541 32.7918 11.8239 33.0243 12.1155L37.8839 7.87309C37.77 7.73348 37.6546 7.59528 37.5372 7.45859L37.5002 7.41554C37.3866 7.28392 37.2714 7.1537 37.1546 7.02478L32.2949 11.2673Z" fill="#F7F7F7"/>
<path d="M16.3295 7.33701C16.8393 7.15479 17.3603 6.999 17.8912 6.87277L16.0766 0.65564C15.9458 0.688976 15.8156 0.723716 15.6856 0.759534L14.8642 1.00271C14.7472 1.04014 14.6309 1.07931 14.5146 1.11879L16.3295 7.33701Z" fill="#F7F7F7"/>
<path d="M28.9092 8.53997C29.2678 8.75164 29.6168 8.97712 29.9546 9.21652L33.4312 3.76678C33.3834 3.73376 33.3364 3.7001 33.2883 3.66752L32.5645 3.19919C32.5052 3.1624 32.4465 3.12475 32.3868 3.0885L28.9092 8.53997Z" fill="#F7F7F7"/>
<path d="M25.1465 13.8467C25.7135 14.1308 26.245 14.4757 26.7321 14.874L30.2191 9.40809C29.7139 9.0334 29.1845 8.69 28.6337 8.38037L25.1465 13.8467Z" fill="#F7F7F7"/>
<path d="M29.8846 22.1177C29.8559 22.5845 29.7899 23.0409 29.6904 23.4847L36.0664 24.4078C36.151 23.9587 36.2161 23.5028 36.2602 23.0406L29.8846 22.1177Z" fill="#F7F7F7"/>
<path d="M27.2041 15.2868C27.6315 15.6911 28.0174 16.1389 28.3554 16.6234L33.2277 12.3698C32.8698 11.9018 32.4852 11.4556 32.0763 11.0333L27.2041 15.2868Z" fill="#F7F7F7"/>
<path d="M29.3692 24.5837C29.2238 24.9775 29.0509 25.3577 28.8525 25.7219L34.71 28.4153C34.8972 28.0445 35.0691 27.6645 35.2262 27.2769L29.3692 24.5837Z" fill="#F7F7F7"/>
<path d="M28.7539 17.2604C29.0245 17.7312 29.2521 18.2297 29.4316 18.7514L35.2962 16.0522C35.0966 15.5409 34.8693 15.0438 34.6178 14.5615L28.7539 17.2604Z" fill="#F7F7F7"/>
<path d="M29.6768 19.6033C29.7892 20.0875 29.863 20.5865 29.8908 21.0982L36.2669 20.1729C36.2206 19.6668 36.1495 19.1681 36.0548 18.6776L29.6768 19.6033Z" fill="#F7F7F7"/>
<path d="M21.3359 12.9463C21.6989 12.9463 22.0559 12.9716 22.4071 13.0158V6.51187C22.0532 6.48674 21.6961 6.47314 21.3359 6.47314C20.9756 6.47314 20.6185 6.48674 20.2646 6.51187V13.0158C20.6158 12.9716 20.9728 12.9463 21.3359 12.9463Z" fill="#F7F7F7"/>
<path d="M21.3359 30.208C20.9728 30.208 20.6158 30.1827 20.2646 30.1385V36.6424C20.6186 36.6676 20.9756 36.6812 21.3359 36.6812C21.6961 36.6812 22.0532 36.6676 22.4071 36.6424V30.1385C22.056 30.1827 21.6989 30.208 21.3359 30.208Z" fill="#F7F7F7"/>
<path d="M25.972 35.9433L24.1574 29.7257C23.889 29.82 23.6148 29.9011 23.335 29.9686L25.1497 36.1867C25.4272 36.1134 25.7012 36.032 25.972 35.9433Z" fill="#F7F7F7"/>
<path d="M26.3766 28.5552C26.1114 28.7498 25.8347 28.929 25.5479 29.0924L29.0285 34.5442C29.3109 34.374 29.5871 34.1945 29.8569 34.0064L26.3766 28.5552Z" fill="#F7F7F7"/>
<path d="M28.1633 26.7915C27.9383 27.0899 27.6945 27.3732 27.4336 27.6394L32.2978 31.8828C32.5512 31.6096 32.7946 31.3267 33.0276 31.0351L28.1633 26.7915Z" fill="#F7F7F7"/>
<path d="M18.5157 13.4286C18.7841 13.3343 19.0583 13.2532 19.3381 13.1858L17.5233 6.96765C17.246 7.04101 16.972 7.12247 16.7012 7.21104L18.5157 13.4286Z" fill="#F7F7F7"/>
<path d="M15.4728 27.8677C15.0454 27.4635 14.6595 27.0156 14.3215 26.5311L9.44922 30.7847C9.80712 31.2527 10.1917 31.699 10.6006 32.1212L15.4728 27.8677Z" fill="#F7F7F7"/>
<path d="M12.9944 23.5509C12.882 23.0667 12.8082 22.5676 12.7804 22.0559L6.4043 22.9812C6.45057 23.4873 6.5217 23.9861 6.6164 24.4765L12.9944 23.5509Z" fill="#F7F7F7"/>
<path d="M13.9173 25.8938C13.6467 25.423 13.419 24.9245 13.2396 24.4028L7.375 27.102C7.57457 27.6133 7.80189 28.1104 8.05352 28.5927L13.9173 25.8938Z" fill="#F7F7F7"/>
<path d="M19.9046 30.0861C19.2303 29.9719 18.5825 29.78 17.9715 29.5171L16.1533 35.7549C16.779 35.987 17.4245 36.1774 18.0862 36.3247L19.9046 30.0861Z" fill="#F7F7F7"/>
<path d="M17.5238 29.3077C16.9568 29.0236 16.4252 28.6787 15.9382 28.2804L12.4512 33.7463C12.9564 34.121 13.4858 34.4644 14.0366 34.774L17.5238 29.3077Z" fill="#F7F7F7"/>
<path d="M12.7848 21.037C12.8135 20.5702 12.8795 20.1139 12.979 19.67L6.60297 18.7469C6.51845 19.196 6.45331 19.6519 6.40918 20.1141L12.7848 21.037Z" fill="#F7F7F7"/>
<path d="M22.7676 13.0686C23.4418 13.1827 24.0897 13.3746 24.7006 13.6375L26.5188 7.3997C25.8931 7.16764 25.2477 6.97722 24.586 6.82996L22.7676 13.0686Z" fill="#F7F7F7"/>
<path d="M16.2938 14.5989C16.559 14.4043 16.8357 14.2251 17.1225 14.0617L13.6419 8.60986C13.3595 8.78011 13.0833 8.95963 12.8135 9.14767L16.2938 14.5989Z" fill="#F7F7F7"/>
<path d="M14.5059 16.3626C14.7309 16.0642 14.9747 15.7809 15.2356 15.5147L10.3714 11.2712C10.118 11.5445 9.8746 11.8274 9.6416 12.119L14.5059 16.3626Z" fill="#F7F7F7"/>
<path d="M13.3013 18.5703C13.4467 18.1765 13.6196 17.7964 13.818 17.4321L7.96057 14.7388C7.77331 15.1096 7.60138 15.4895 7.44434 15.8772L13.3013 18.5703Z" fill="#F7F7F7"/>
</symbol><symbol viewBox="0 0 10 16" fill="none" id="svg-slider-next" xmlns="http://www.w3.org/2000/svg">
<path d="M1.41211 1.69336L7.91418 8.19543L1.41211 14.6975" stroke-width="2.66667"/>
</symbol><symbol viewBox="0 0 10 16" fill="none" id="svg-slider-prev" xmlns="http://www.w3.org/2000/svg">
<path d="M9.24805 1.69336L2.74597 8.19543L9.24805 14.6975" stroke-width="2.66667"/>
</symbol></svg>