<svg width="343" height="343" viewBox="0 0 343 343" fill="none" xmlns="http://www.w3.org/2000/svg">
<path d="M187.326 52.4892C188.167 52.5998 189.005 52.7147 189.84 52.8425L197.159 1.92497L194.647 1.56396L187.326 52.4892Z" fill="#1C1C1C"/>
<path d="M227.98 65.5481C228.62 65.8894 229.256 66.2384 229.888 66.5908L254.497 21.4169L252.587 20.3767L227.98 65.5481Z" fill="#1C1C1C"/>
<path d="M220.348 61.8103C221.032 62.1156 221.712 62.4295 222.389 62.7476L243.751 15.9581L241.708 15.0251L220.348 61.8103Z" fill="#1C1C1C"/>
<path d="M212.27 58.5542C212.998 58.8175 213.721 59.0893 214.442 59.3663L232.37 11.1602L230.196 10.3516L212.27 58.5542Z" fill="#1C1C1C"/>
<path d="M204.174 55.9519C204.943 56.1688 205.706 56.3978 206.469 56.6293L220.956 7.2802L218.66 6.6062L204.174 55.9519Z" fill="#1C1C1C"/>
<path d="M195.709 53.8921C196.516 54.0576 197.318 54.2351 198.119 54.4169L209.005 4.14685L206.595 3.62549L195.709 53.8921Z" fill="#1C1C1C"/>
<path d="M170.158 51.4672C170.606 51.462 171.052 51.45 171.5 51.45C171.949 51.45 172.395 51.462 172.842 51.4672V0.01715C172.395 0.01372 171.949 0 171.5 0C171.052 0 170.606 0.01372 170.158 0.01715V51.4672Z" fill="#1C1C1C"/>
<path d="M342.543 158.976L342.511 158.543L291.199 162.257C291.228 162.639 291.247 163.025 291.272 163.409L342.587 159.694C342.572 159.456 342.561 159.215 342.543 158.976Z" fill="#1C1C1C"/>
<path d="M263.318 26.645L235.51 69.9282C236.102 70.3021 236.69 70.6828 237.275 71.0661L265.085 27.7803L263.318 26.645Z" fill="#1C1C1C"/>
<path d="M267.004 98.7615C267.355 99.222 267.705 99.6825 268.049 100.148L309.204 69.2704L308.353 68.135C308.289 68.051 308.223 67.9678 308.16 67.8838L267.004 98.7615Z" fill="#1C1C1C"/>
<path d="M178.656 51.6681C179.527 51.7195 180.395 51.777 181.261 51.8464L184.887 0.51818L184.04 0.458155C183.456 0.416137 182.868 0.382695 182.282 0.34668L178.656 51.6681Z" fill="#1C1C1C"/>
<path d="M341.16 146.432L290.244 153.768C290.304 154.172 290.358 154.578 290.414 154.983L341.334 147.645L341.16 146.432Z" fill="#1C1C1C"/>
<path d="M291.968 49.4478L255.625 85.8658C256.073 86.3057 256.518 86.7481 256.958 87.1949L293.302 50.776C292.86 50.3301 292.414 49.8885 291.968 49.4478Z" fill="#1C1C1C"/>
<path d="M338.899 134.213L288.654 145.205C288.749 145.627 288.84 146.051 288.93 146.474L339.176 135.482L338.899 134.213Z" fill="#1C1C1C"/>
<path d="M242.531 74.7183C243.076 75.1188 243.617 75.5235 244.155 75.9334L274.947 34.7117C274.89 34.6679 274.833 34.6242 274.777 34.5805L273.364 33.5257C273.352 33.5163 273.338 33.5069 273.324 33.4966L242.531 74.7183Z" fill="#1C1C1C"/>
<path d="M261.613 92.189C262.012 92.6418 262.408 93.0971 262.8 93.5559L301.678 59.8553C301.556 59.7138 301.438 59.5689 301.316 59.4274L301.028 59.0947C300.852 58.8906 300.669 58.6916 300.491 58.4893L261.613 92.189Z" fill="#1C1C1C"/>
<path d="M249.357 80.1264C249.853 80.5492 250.345 80.9762 250.834 81.4075L284.521 42.5182C284.312 42.3347 284.107 42.1469 283.897 41.9642L283.577 41.6872C283.401 41.5355 283.221 41.388 283.044 41.2371L249.357 80.1264Z" fill="#1C1C1C"/>
<path d="M272.031 105.872C272.335 106.336 272.638 106.801 272.934 107.269L316.205 79.4473L315.305 78.0479L272.031 105.872Z" fill="#1C1C1C"/>
<path d="M283.701 128.734C283.873 129.184 284.048 129.632 284.215 130.085L332.373 112.06L331.867 110.707L283.701 128.734Z" fill="#1C1C1C"/>
<path d="M286.504 136.981C286.635 137.42 286.769 137.857 286.895 138.297L336.233 123.795L335.846 122.479L286.504 136.981Z" fill="#1C1C1C"/>
<path d="M276.43 113.146C276.688 113.609 276.948 114.071 277.2 114.538L322.314 89.8385L321.55 88.4434L276.43 113.146Z" fill="#1C1C1C"/>
<path d="M100.471 268.281C99.9263 267.881 99.3852 267.476 98.8475 267.066L68.0547 308.288C68.1121 308.332 68.1687 308.376 68.2262 308.42L69.6376 309.475C69.6505 309.484 69.6642 309.494 69.6779 309.504L100.471 268.281Z" fill="#1C1C1C"/>
<path d="M280.391 120.904C280.604 121.363 280.82 121.82 281.029 122.282L327.801 100.907L327.17 99.5264L280.391 120.904Z" fill="#1C1C1C"/>
<path d="M130.733 284.445C130.005 284.181 129.282 283.91 128.561 283.633L110.633 331.839L112.807 332.647L130.733 284.445Z" fill="#1C1C1C"/>
<path d="M138.829 287.049C138.06 286.832 137.297 286.603 136.533 286.371L122.047 335.72L124.343 336.394L138.829 287.049Z" fill="#1C1C1C"/>
<path d="M62.6115 222.096C62.398 221.637 62.1819 221.18 61.9735 220.718L15.2012 242.093L15.8323 243.473L62.6115 222.096Z" fill="#1C1C1C"/>
<path d="M147.292 289.108C146.486 288.942 145.684 288.765 144.883 288.583L133.996 338.853L136.407 339.374L147.292 289.108Z" fill="#1C1C1C"/>
<path d="M122.654 281.189C121.969 280.884 121.289 280.57 120.612 280.253L99.25 327.042L101.293 327.975L122.654 281.189Z" fill="#1C1C1C"/>
<path d="M66.5715 229.854C66.3134 229.391 66.0535 228.928 65.8014 228.462L20.6875 253.161L21.4515 254.556L66.5715 229.854Z" fill="#1C1C1C"/>
<path d="M70.9701 237.127C70.6666 236.663 70.3639 236.199 70.0672 235.73L26.7969 263.552L27.6964 264.951L70.9701 237.127Z" fill="#1C1C1C"/>
<path d="M115.02 277.452C114.381 277.111 113.745 276.762 113.112 276.409L88.5039 321.583L90.4136 322.623L115.02 277.452Z" fill="#1C1C1C"/>
<path d="M79.6825 316.355L107.491 273.071C106.899 272.698 106.311 272.317 105.726 271.934L77.916 315.219L79.6825 316.355Z" fill="#1C1C1C"/>
<path d="M155.675 290.511C154.834 290.4 153.996 290.285 153.161 290.157L145.842 341.075L148.354 341.436L155.675 290.511Z" fill="#1C1C1C"/>
<path d="M164.346 291.332C163.475 291.28 162.607 291.223 161.741 291.153L158.115 342.482L158.962 342.542C159.546 342.584 160.134 342.617 160.72 342.653L164.346 291.332Z" fill="#1C1C1C"/>
<path d="M172.842 291.533C172.395 291.538 171.949 291.55 171.5 291.55C171.052 291.55 170.606 291.538 170.158 291.533V342.983C170.606 342.987 171.052 343 171.5 343C171.949 343 172.395 342.987 172.842 342.983V291.533Z" fill="#1C1C1C"/>
<path d="M0.458414 184.024L0.490142 184.457L51.8021 180.743C51.7729 180.361 51.7541 179.975 51.7292 179.592L0.412109 183.306C0.429259 183.545 0.440407 183.785 0.458414 184.024Z" fill="#1C1C1C"/>
<path d="M51.0335 293.552L87.3761 257.134C86.9284 256.694 86.4834 256.251 86.0426 255.805L49.6992 292.224C50.1408 292.669 50.5867 293.11 51.0335 293.552Z" fill="#1C1C1C"/>
<path d="M75.997 244.238C75.6463 243.778 75.2964 243.317 74.9517 242.852L33.7969 273.73L34.6484 274.865C34.7118 274.949 34.7779 275.032 34.8413 275.116L75.997 244.238Z" fill="#1C1C1C"/>
<path d="M1.84204 196.568L52.7578 189.231C52.6978 188.827 52.6438 188.421 52.588 188.017L1.66797 195.354L1.84204 196.568Z" fill="#1C1C1C"/>
<path d="M59.3006 214.266C59.1291 213.815 58.9533 213.368 58.787 212.915L10.6289 230.94L11.1348 232.293L59.3006 214.266Z" fill="#1C1C1C"/>
<path d="M81.3883 250.811C80.9896 250.358 80.5934 249.903 80.2016 249.444L41.3242 283.145C41.446 283.286 41.5643 283.431 41.6861 283.573L41.9742 283.904C42.1517 284.109 42.3335 284.307 42.5119 284.51L81.3883 250.811Z" fill="#1C1C1C"/>
<path d="M93.644 262.874C93.1483 262.451 92.6561 262.024 92.1674 261.593L58.4805 300.482C58.6897 300.666 58.8946 300.853 59.1047 301.036L59.4246 301.313C59.6004 301.465 59.7813 301.612 59.9579 301.764L93.644 262.874Z" fill="#1C1C1C"/>
<path d="M56.4966 206.019C56.3654 205.58 56.2316 205.144 56.1056 204.703L6.76758 219.206L7.15431 220.522L56.4966 206.019Z" fill="#1C1C1C"/>
<path d="M54.3464 197.794C54.2521 197.373 54.1603 196.949 54.0703 196.525L3.82422 207.518L4.10205 208.786L54.3464 197.794Z" fill="#1C1C1C"/>
<path d="M165.974 103.141C166.358 103.11 166.74 103.078 167.125 103.054L163.409 51.7271C163.026 51.7528 162.64 51.7708 162.258 51.7999L165.974 103.141Z" fill="#1C1C1C"/>
<path d="M156.208 104.632C156.631 104.536 157.048 104.428 157.474 104.34L146.476 54.0688C146.053 54.1589 145.629 54.2506 145.207 54.345L156.208 104.632Z" fill="#1C1C1C"/>
<path d="M161.109 103.683C161.511 103.622 161.92 103.583 162.325 103.529L154.984 52.5864C154.579 52.6422 154.173 52.6962 153.77 52.7562L161.109 103.683Z" fill="#1C1C1C"/>
<path d="M146.779 107.51C147.228 107.336 147.673 107.155 148.127 106.99L130.085 58.7869C129.632 58.9532 129.185 59.129 128.734 59.3005L146.779 107.51Z" fill="#1C1C1C"/>
<path d="M151.495 105.872C151.931 105.739 152.374 105.622 152.814 105.497L138.296 56.1045C137.856 56.2305 137.419 56.3643 136.98 56.4955L151.495 105.872Z" fill="#1C1C1C"/>
<path d="M142.298 109.422C142.755 109.207 143.219 109.002 143.682 108.797L122.284 61.9741C121.822 62.1816 121.365 62.3986 120.906 62.6121L142.298 109.422Z" fill="#1C1C1C"/>
<path d="M105.353 153.329C105.564 152.559 105.773 151.787 106.011 151.028L56.6306 136.532C56.399 137.294 56.1701 138.058 55.9531 138.828L105.353 153.329Z" fill="#1C1C1C"/>
<path d="M125.897 120.27C126.347 119.869 126.804 119.475 127.265 119.085L93.5583 80.2002C93.0995 80.5921 92.6442 80.9882 92.1914 81.387L125.897 120.27Z" fill="#1C1C1C"/>
<path d="M113.229 135.31C113.6 134.715 113.975 134.124 114.363 133.542L71.0676 105.726C70.6834 106.31 70.3036 106.899 69.9297 107.49L113.229 135.31Z" fill="#1C1C1C"/>
<path d="M137.866 111.719C138.328 111.458 138.789 111.197 139.257 110.947L114.54 65.8013C114.074 66.0534 113.611 66.3132 113.148 66.5713L137.866 111.719Z" fill="#1C1C1C"/>
<path d="M108.639 144.033C108.939 143.347 109.242 142.661 109.564 141.987L62.7497 120.613C62.4325 121.29 62.1178 121.97 61.8125 122.654L108.639 144.033Z" fill="#1C1C1C"/>
<path d="M106.805 148.677C107.063 147.946 107.336 147.224 107.618 146.504L59.3667 128.56C59.0906 129.281 58.8179 130.004 58.5547 130.732L106.805 148.677Z" fill="#1C1C1C"/>
<path d="M115.95 131.269C116.347 130.722 116.753 130.18 117.165 129.645L75.9338 98.8457C75.5248 99.3834 75.1192 99.9244 74.7188 100.469L115.95 131.269Z" fill="#1C1C1C"/>
<path d="M110.75 139.643C111.088 139.001 111.437 138.366 111.794 137.736L66.5924 113.112C66.2391 113.745 65.891 114.38 65.5488 115.02L110.75 139.643Z" fill="#1C1C1C"/>
<path d="M129.648 117.164C130.107 116.811 130.566 116.46 131.034 116.118L100.148 74.9526C99.6827 75.2974 99.2222 75.6472 98.7617 75.9979L129.648 117.164Z" fill="#1C1C1C"/>
<path d="M133.706 114.257C134.168 113.951 134.636 113.654 135.106 113.359L107.27 70.0664C106.802 70.3631 106.337 70.6658 105.873 70.9694L133.706 114.257Z" fill="#1C1C1C"/>
<path d="M119.024 127.335C119.444 126.837 119.871 126.344 120.304 125.858L81.41 92.1658C80.9795 92.6545 80.5525 93.1468 80.1289 93.6424L119.024 127.335Z" fill="#1C1C1C"/>
<path d="M122.294 123.726C122.731 123.276 123.174 122.831 123.623 122.392L87.1963 86.0415C86.7496 86.4823 86.3071 86.9273 85.8672 87.3749L122.294 123.726Z" fill="#1C1C1C"/>
<path d="M220.708 219.274C220.271 219.725 219.828 220.17 219.379 220.609L255.806 256.959C256.252 256.518 256.695 256.073 257.135 255.626L220.708 219.274Z" fill="#1C1C1C"/>
<path d="M102.901 171.5C102.901 171.05 102.927 170.606 102.935 170.158H51.4683C51.4632 170.605 51.4512 171.052 51.4512 171.5C51.4512 171.949 51.4632 172.395 51.4683 172.842H102.935C102.927 172.395 102.901 171.95 102.901 171.5Z" fill="#1C1C1C"/>
<path d="M240.101 171.5C240.101 171.95 240.075 172.395 240.066 172.842H291.534C291.539 172.395 291.551 171.949 291.551 171.5C291.551 171.052 291.539 170.606 291.534 170.158H240.066C240.075 170.606 240.101 171.05 240.101 171.5Z" fill="#1C1C1C"/>
<path d="M200.706 233.578C200.249 233.793 199.785 233.998 199.322 234.203L220.72 281.026C221.183 280.818 221.64 280.601 222.098 280.388L200.706 233.578Z" fill="#1C1C1C"/>
<path d="M205.137 231.281C204.675 231.542 204.214 231.803 203.746 232.052L228.463 277.198C228.929 276.946 229.391 276.686 229.854 276.428L205.137 231.281Z" fill="#1C1C1C"/>
<path d="M209.297 228.743C208.835 229.05 208.366 229.346 207.896 229.641L235.733 272.934C236.201 272.636 236.666 272.334 237.13 272.031L209.297 228.743Z" fill="#1C1C1C"/>
<path d="M213.354 225.836C212.896 226.189 212.436 226.54 211.969 226.882L242.854 268.047C243.32 267.703 243.78 267.353 244.241 267.002L213.354 225.836Z" fill="#1C1C1C"/>
<path d="M181.894 239.316C181.492 239.377 181.082 239.417 180.678 239.471L188.019 290.413C188.424 290.357 188.829 290.303 189.233 290.243L181.894 239.316Z" fill="#1C1C1C"/>
<path d="M217.106 222.729C216.656 223.131 216.199 223.525 215.738 223.915L249.445 262.8C249.904 262.408 250.359 262.012 250.812 261.613L217.106 222.729Z" fill="#1C1C1C"/>
<path d="M177.028 239.859C176.644 239.89 176.262 239.923 175.877 239.947L179.593 291.273C179.976 291.248 180.362 291.23 180.744 291.2L177.028 239.859Z" fill="#1C1C1C"/>
<path d="M191.507 237.128C191.071 237.261 190.627 237.378 190.188 237.503L204.706 286.896C205.146 286.769 205.583 286.636 206.021 286.504L191.507 237.128Z" fill="#1C1C1C"/>
<path d="M186.795 238.367C186.372 238.463 185.955 238.571 185.529 238.66L196.527 288.931C196.95 288.841 197.374 288.749 197.796 288.654L186.795 238.367Z" fill="#1C1C1C"/>
<path d="M196.223 235.49C195.774 235.664 195.329 235.845 194.875 236.01L212.917 284.213C213.37 284.047 213.817 283.871 214.267 283.7L196.223 235.49Z" fill="#1C1C1C"/>
<path d="M237.649 189.671C237.438 190.441 237.229 191.213 236.992 191.972L286.371 206.467C286.603 205.704 286.832 204.94 287.049 204.171L237.649 189.671Z" fill="#1C1C1C"/>
<path d="M236.197 194.323C235.938 195.054 235.665 195.776 235.383 196.495L283.634 214.44C283.91 213.719 284.183 212.995 284.446 212.267L236.197 194.323Z" fill="#1C1C1C"/>
<path d="M238.799 184.813C238.639 185.623 238.456 186.423 238.27 187.222L288.584 198.119C288.765 197.318 288.943 196.517 289.109 195.71L238.799 184.813Z" fill="#1C1C1C"/>
<path d="M223.979 215.664C223.559 216.162 223.133 216.655 222.699 217.141L261.594 250.833C262.024 250.345 262.451 249.852 262.875 249.357L223.979 215.664Z" fill="#1C1C1C"/>
<path d="M239.558 180.001C239.454 180.843 239.344 181.683 239.209 182.515L290.158 189.839C290.286 189.005 290.401 188.166 290.512 187.326L239.558 180.001Z" fill="#1C1C1C"/>
<path d="M240.013 175.03C239.968 175.904 239.891 176.768 239.814 177.634L291.156 181.26C291.225 180.395 291.282 179.526 291.334 178.655L240.013 175.03Z" fill="#1C1C1C"/>
<path d="M227.053 211.73C226.656 212.278 226.25 212.819 225.838 213.354L267.069 244.153C267.478 243.616 267.884 243.075 268.284 242.53L227.053 211.73Z" fill="#1C1C1C"/>
<path d="M104.205 158.187C104.364 157.377 104.547 156.577 104.734 155.778L54.4193 144.882C54.2384 145.683 54.06 146.485 53.8945 147.291L104.205 158.187Z" fill="#1C1C1C"/>
<path d="M232.253 203.357C231.915 204 231.566 204.634 231.209 205.265L276.41 229.888C276.763 229.256 277.112 228.62 277.453 227.981L232.253 203.357Z" fill="#1C1C1C"/>
<path d="M234.365 198.967C234.065 199.654 233.762 200.339 233.439 201.014L280.254 222.388C280.571 221.71 280.886 221.03 281.191 220.346L234.365 198.967Z" fill="#1C1C1C"/>
<path d="M229.774 207.69C229.404 208.286 229.028 208.876 228.641 209.459L271.936 237.275C272.32 236.69 272.7 236.102 273.074 235.509L229.774 207.69Z" fill="#1C1C1C"/>
<path d="M102.991 167.97C103.036 167.096 103.113 166.232 103.189 165.366L51.8483 161.74C51.7788 162.605 51.7214 163.474 51.6699 164.345L102.991 167.97Z" fill="#1C1C1C"/>
<path d="M103.444 162.999C103.548 162.157 103.658 161.318 103.793 160.485L52.8435 153.161C52.7158 153.995 52.6009 154.834 52.4902 155.674L103.444 162.999Z" fill="#1C1C1C"/>
</svg>
