<svg width="580" height="580" viewBox="0 0 580 580" fill="none" xmlns="http://www.w3.org/2000/svg">
<path d="M316.758 88.7576C318.179 88.9447 319.597 89.139 321.008 89.355L333.385 3.25547L329.136 2.64502L316.758 88.7576Z" fill="#1C1C1C"/>
<path d="M385.506 110.839C386.588 111.416 387.662 112.007 388.732 112.603L430.344 36.2151L427.115 34.4563L385.506 110.839Z" fill="#1C1C1C"/>
<path d="M372.598 104.519C373.755 105.035 374.905 105.566 376.05 106.104L412.173 26.9846L408.717 25.407L372.598 104.519Z" fill="#1C1C1C"/>
<path d="M358.936 99.0133C360.167 99.4584 361.39 99.9181 362.61 100.386L392.925 18.8717L389.249 17.5044L358.936 99.0133Z" fill="#1C1C1C"/>
<path d="M345.246 94.6126C346.547 94.9795 347.837 95.3666 349.128 95.7581L373.624 12.3106L369.741 11.1709L345.246 94.6126Z" fill="#1C1C1C"/>
<path d="M330.936 91.1296C332.3 91.4095 333.656 91.7096 335.01 92.017L353.419 7.01221L349.343 6.13062L330.936 91.1296Z" fill="#1C1C1C"/>
<path d="M287.73 87.029C288.487 87.0203 289.241 87 290 87C290.758 87 291.512 87.0203 292.269 87.029V0.029C291.512 0.0232 290.758 0 290 0C289.241 0 288.487 0.0232 287.73 0.029V87.029Z" fill="#1C1C1C"/>
<path d="M579.226 268.823L579.173 268.091L492.406 274.371C492.456 275.017 492.487 275.67 492.529 276.318L579.302 270.037C579.276 269.634 579.257 269.226 579.226 268.823Z" fill="#1C1C1C"/>
<path d="M445.26 45.0557L398.236 118.246C399.238 118.878 400.232 119.522 401.22 120.17L448.247 46.9755L445.26 45.0557Z" fill="#1C1C1C"/>
<path d="M451.488 167.002C452.081 167.781 452.673 168.559 453.256 169.347L522.847 117.134L521.407 115.214C521.3 115.072 521.188 114.931 521.081 114.789L451.488 167.002Z" fill="#1C1C1C"/>
<path d="M302.098 87.3682C303.569 87.4552 305.038 87.5523 306.503 87.6698L312.633 0.875693L311.202 0.774193C310.213 0.703143 309.22 0.646593 308.228 0.585693L302.098 87.3682Z" fill="#1C1C1C"/>
<path d="M576.888 247.61L490.791 260.017C490.893 260.7 490.984 261.385 491.078 262.07L577.182 249.662L576.888 247.61Z" fill="#1C1C1C"/>
<path d="M493.704 83.6143L432.25 145.196C433.007 145.94 433.759 146.688 434.505 147.443L495.96 85.8603C495.213 85.1063 494.459 84.3596 493.704 83.6143Z" fill="#1C1C1C"/>
<path d="M573.063 226.949L488.102 245.537C488.261 246.25 488.416 246.966 488.568 247.683L573.533 229.095L573.063 226.949Z" fill="#1C1C1C"/>
<path d="M410.109 126.346C411.03 127.023 411.945 127.707 412.854 128.4L464.924 58.6958C464.827 58.6218 464.731 58.5479 464.635 58.4739L462.247 56.6904C462.225 56.6745 462.202 56.6585 462.179 56.6411L410.109 126.346Z" fill="#1C1C1C"/>
<path d="M442.379 155.888C443.053 156.653 443.723 157.423 444.386 158.199L510.127 101.213C509.921 100.973 509.721 100.728 509.515 100.489L509.028 99.9265C508.729 99.5814 508.421 99.245 508.12 98.9028L442.379 155.888Z" fill="#1C1C1C"/>
<path d="M421.652 135.491C422.49 136.206 423.323 136.928 424.149 137.657L481.112 71.8968C480.759 71.5865 480.412 71.2689 480.057 70.9601L479.516 70.4917C479.219 70.2351 478.914 69.9857 478.616 69.7305L421.652 135.491Z" fill="#1C1C1C"/>
<path d="M459.992 179.026C460.505 179.81 461.017 180.596 461.519 181.388L534.688 134.342L533.166 131.976L459.992 179.026Z" fill="#1C1C1C"/>
<path d="M479.725 217.685C480.015 218.446 480.312 219.203 480.593 219.968L562.027 189.489L561.171 187.201L479.725 217.685Z" fill="#1C1C1C"/>
<path d="M484.465 231.63C484.687 232.371 484.913 233.111 485.126 233.855L568.555 209.332L567.901 207.106L484.465 231.63Z" fill="#1C1C1C"/>
<path d="M467.43 191.326C467.866 192.109 468.306 192.891 468.732 193.68L545.018 151.914L543.726 149.555L467.43 191.326Z" fill="#1C1C1C"/>
<path d="M169.889 453.654C168.968 452.977 168.053 452.293 167.144 451.6L115.074 521.304C115.171 521.378 115.267 521.453 115.364 521.527L117.751 523.311C117.773 523.327 117.796 523.343 117.819 523.36L169.889 453.654Z" fill="#1C1C1C"/>
<path d="M474.125 204.444C474.486 205.22 474.851 205.993 475.204 206.774L554.294 170.63L553.227 168.296L474.125 204.444Z" fill="#1C1C1C"/>
<path d="M221.064 480.985C219.833 480.54 218.609 480.08 217.389 479.612L187.074 561.127L190.75 562.494L221.064 480.985Z" fill="#1C1C1C"/>
<path d="M234.751 485.388C233.45 485.021 232.16 484.634 230.869 484.242L206.373 567.69L210.256 568.829L234.751 485.388Z" fill="#1C1C1C"/>
<path d="M105.872 375.556C105.511 374.78 105.146 374.007 104.793 373.226L25.7031 409.37L26.7703 411.704L105.872 375.556Z" fill="#1C1C1C"/>
<path d="M249.062 488.871C247.697 488.591 246.342 488.291 244.987 487.983L226.578 572.988L230.654 573.87L249.062 488.871Z" fill="#1C1C1C"/>
<path d="M207.401 475.481C206.244 474.965 205.094 474.434 203.949 473.897L167.826 553.017L171.282 554.594L207.401 475.481Z" fill="#1C1C1C"/>
<path d="M112.569 388.674C112.132 387.891 111.693 387.109 111.266 386.32L34.9805 428.086L36.2724 430.445L112.569 388.674Z" fill="#1C1C1C"/>
<path d="M120.004 400.972C119.491 400.188 118.979 399.402 118.477 398.61L45.3086 445.656L46.8296 448.022L120.004 400.972Z" fill="#1C1C1C"/>
<path d="M194.493 469.161C193.411 468.584 192.337 467.993 191.266 467.397L149.654 543.785L152.883 545.544L194.493 469.161Z" fill="#1C1C1C"/>
<path d="M134.739 534.944L181.762 461.754C180.761 461.122 179.767 460.478 178.778 459.83L131.752 533.025L134.739 534.944Z" fill="#1C1C1C"/>
<path d="M263.24 491.243C261.819 491.056 260.401 490.862 258.99 490.646L246.613 576.745L250.862 577.355L263.24 491.243Z" fill="#1C1C1C"/>
<path d="M277.901 492.631C276.429 492.544 274.96 492.447 273.496 492.329L267.365 579.123L268.796 579.225C269.785 579.296 270.779 579.352 271.77 579.413L277.901 492.631Z" fill="#1C1C1C"/>
<path d="M292.269 492.971C291.512 492.979 290.758 493 290 493C289.241 493 288.487 492.979 287.73 492.971V579.971C288.487 579.977 289.241 580 290 580C290.758 580 291.512 579.977 292.269 579.971V492.971Z" fill="#1C1C1C"/>
<path d="M0.773612 311.178L0.827262 311.91L87.5938 305.63C87.5445 304.983 87.5126 304.331 87.4706 303.683L0.695312 309.963C0.724312 310.367 0.743162 310.773 0.773612 311.178Z" fill="#1C1C1C"/>
<path d="M86.2953 496.386L147.749 434.804C146.992 434.06 146.24 433.312 145.494 432.557L84.0391 494.14C84.7858 494.892 85.5398 495.639 86.2953 496.386Z" fill="#1C1C1C"/>
<path d="M128.507 412.998C127.914 412.219 127.323 411.441 126.74 410.653L57.1484 462.866L58.5883 464.786C58.6956 464.928 58.8072 465.069 58.9145 465.211L128.507 412.998Z" fill="#1C1C1C"/>
<path d="M3.11076 332.388L89.2074 319.982C89.1059 319.299 89.0145 318.613 88.9203 317.929L2.81641 330.336L3.11076 332.388Z" fill="#1C1C1C"/>
<path d="M100.275 362.314C99.9846 361.553 99.6874 360.796 99.4061 360.03L17.9727 390.509L18.8282 392.797L100.275 362.314Z" fill="#1C1C1C"/>
<path d="M137.622 424.112C136.948 423.346 136.278 422.577 135.615 421.801L69.875 478.787C70.0809 479.026 70.281 479.272 70.4869 479.511L70.9741 480.072C71.2743 480.417 71.5817 480.753 71.8833 481.096L137.622 424.112Z" fill="#1C1C1C"/>
<path d="M158.347 444.509C157.509 443.794 156.676 443.072 155.85 442.343L98.8867 508.103C99.2405 508.413 99.5871 508.731 99.9423 509.04L100.483 509.508C100.78 509.765 101.086 510.014 101.385 510.271L158.347 444.509Z" fill="#1C1C1C"/>
<path d="M95.5332 348.37C95.3114 347.629 95.0852 346.891 94.872 346.146L11.4434 370.669L12.0973 372.895L95.5332 348.37Z" fill="#1C1C1C"/>
<path d="M91.8959 334.462C91.7364 333.749 91.5813 333.033 91.429 332.316L6.46484 350.904L6.93464 353.048L91.8959 334.462Z" fill="#1C1C1C"/>
<path d="M280.655 174.407C281.304 174.355 281.95 174.3 282.601 174.259L276.318 87.4683C275.67 87.5118 275.018 87.5422 274.371 87.5915L280.655 174.407Z" fill="#1C1C1C"/>
<path d="M264.139 176.929C264.854 176.767 265.56 176.584 266.279 176.434L247.683 91.4282C246.967 91.5805 246.251 91.7356 245.537 91.8951L264.139 176.929Z" fill="#1C1C1C"/>
<path d="M272.428 175.324C273.108 175.221 273.8 175.154 274.484 175.063L262.071 88.9211C261.386 89.0154 260.701 89.1067 260.018 89.2082L272.428 175.324Z" fill="#1C1C1C"/>
<path d="M248.196 181.795C248.956 181.501 249.708 181.195 250.475 180.917L219.967 99.4062C219.202 99.6876 218.445 99.9848 217.684 100.275L248.196 181.795Z" fill="#1C1C1C"/>
<path d="M256.172 179.026C256.91 178.801 257.659 178.602 258.403 178.392L233.853 94.8706C233.109 95.0838 232.37 95.31 231.629 95.5318L256.172 179.026Z" fill="#1C1C1C"/>
<path d="M240.618 185.029C241.391 184.665 242.176 184.318 242.959 183.972L206.775 104.796C205.994 105.147 205.221 105.514 204.445 105.875L240.618 185.029Z" fill="#1C1C1C"/>
<path d="M178.146 259.273C178.503 257.971 178.857 256.666 179.258 255.382L95.7588 230.87C95.3673 232.159 94.9801 233.451 94.6133 234.752L178.146 259.273Z" fill="#1C1C1C"/>
<path d="M212.882 203.373C213.643 202.694 214.416 202.027 215.195 201.369L158.198 135.616C157.422 136.278 156.652 136.948 155.887 137.623L212.882 203.373Z" fill="#1C1C1C"/>
<path d="M191.464 228.804C192.09 227.798 192.725 226.798 193.381 225.814L120.17 178.777C119.521 179.766 118.878 180.761 118.246 181.761L191.464 228.804Z" fill="#1C1C1C"/>
<path d="M233.122 188.912C233.904 188.471 234.683 188.03 235.474 187.607L193.68 111.267C192.891 111.693 192.109 112.133 191.326 112.569L233.122 188.912Z" fill="#1C1C1C"/>
<path d="M183.701 243.555C184.209 242.394 184.72 241.235 185.266 240.094L106.104 203.951C105.568 205.097 105.036 206.247 104.52 207.404L183.701 243.555Z" fill="#1C1C1C"/>
<path d="M180.602 251.407C181.039 250.171 181.501 248.95 181.978 247.734L100.387 217.39C99.9199 218.609 99.4588 219.833 99.0137 221.064L180.602 251.407Z" fill="#1C1C1C"/>
<path d="M196.066 221.97C196.737 221.045 197.423 220.13 198.121 219.225L128.4 167.144C127.709 168.053 127.023 168.968 126.346 169.889L196.066 221.97Z" fill="#1C1C1C"/>
<path d="M187.274 236.131C187.845 235.045 188.435 233.972 189.038 232.906L112.604 191.268C112.007 192.338 111.418 193.412 110.84 194.494L187.274 236.131Z" fill="#1C1C1C"/>
<path d="M219.228 198.119C220.003 197.522 220.781 196.929 221.571 196.35L169.345 126.741C168.557 127.324 167.779 127.916 167 128.509L219.228 198.119Z" fill="#1C1C1C"/>
<path d="M226.089 193.204C226.871 192.686 227.663 192.184 228.457 191.686L181.387 118.479C180.596 118.981 179.81 119.493 179.025 120.006L226.089 193.204Z" fill="#1C1C1C"/>
<path d="M201.263 215.319C201.973 214.477 202.694 213.643 203.428 212.821L137.658 155.849C136.931 156.675 136.208 157.508 135.492 158.346L201.263 215.319Z" fill="#1C1C1C"/>
<path d="M206.793 209.216C207.533 208.455 208.281 207.703 209.041 206.96L147.445 145.493C146.689 146.238 145.941 146.991 145.197 147.748L206.793 209.216Z" fill="#1C1C1C"/>
<path d="M373.208 370.784C372.469 371.545 371.721 372.298 370.961 373.04L432.557 434.507C433.312 433.762 434.061 433.01 434.804 432.253L373.208 370.784Z" fill="#1C1C1C"/>
<path d="M174 290C174 289.239 174.043 288.488 174.058 287.731H87.029C87.0203 288.486 87 289.242 87 290C87 290.758 87.0203 291.512 87.029 292.269H174.058C174.043 291.512 174 290.761 174 290Z" fill="#1C1C1C"/>
<path d="M405.999 290C405.999 290.761 405.956 291.512 405.941 292.269H492.97C492.979 291.512 492.999 290.758 492.999 290C492.999 289.241 492.979 288.487 492.97 287.73H405.941C405.956 288.487 405.999 289.238 405.999 290Z" fill="#1C1C1C"/>
<path d="M339.383 394.972C338.61 395.336 337.826 395.682 337.043 396.029L373.226 475.204C374.008 474.854 374.781 474.487 375.556 474.126L339.383 394.972Z" fill="#1C1C1C"/>
<path d="M346.877 391.088C346.096 391.529 345.317 391.969 344.525 392.391L386.32 468.731C387.109 468.305 387.891 467.865 388.674 467.429L346.877 391.088Z" fill="#1C1C1C"/>
<path d="M353.911 386.796C353.129 387.314 352.338 387.815 351.543 388.314L398.613 461.52C399.405 461.017 400.19 460.507 400.975 459.993L353.911 386.796Z" fill="#1C1C1C"/>
<path d="M360.773 381.881C359.997 382.478 359.22 383.071 358.43 383.65L410.656 453.259C411.443 452.676 412.222 452.084 413 451.491L360.773 381.881Z" fill="#1C1C1C"/>
<path d="M307.572 404.675C306.892 404.778 306.2 404.844 305.516 404.936L317.929 491.077C318.613 490.983 319.299 490.892 319.982 490.79L307.572 404.675Z" fill="#1C1C1C"/>
<path d="M367.117 376.627C366.356 377.306 365.583 377.973 364.805 378.631L421.801 444.384C422.577 443.721 423.347 443.051 424.113 442.377L367.117 376.627Z" fill="#1C1C1C"/>
<path d="M299.344 405.593C298.696 405.645 298.049 405.7 297.398 405.741L303.681 492.532C304.329 492.488 304.982 492.458 305.629 492.409L299.344 405.593Z" fill="#1C1C1C"/>
<path d="M323.829 400.975C323.091 401.199 322.342 401.398 321.598 401.608L346.148 485.13C346.891 484.917 347.631 484.69 348.372 484.469L323.829 400.975Z" fill="#1C1C1C"/>
<path d="M315.863 403.069C315.148 403.232 314.442 403.414 313.723 403.564L332.319 488.57C333.035 488.418 333.752 488.263 334.465 488.103L315.863 403.069Z" fill="#1C1C1C"/>
<path d="M331.803 398.205C331.043 398.499 330.29 398.805 329.523 399.084L360.031 480.594C360.797 480.313 361.554 480.016 362.315 479.726L331.803 398.205Z" fill="#1C1C1C"/>
<path d="M401.855 320.727C401.498 322.029 401.144 323.334 400.744 324.617L484.242 349.128C484.634 347.839 485.021 346.547 485.388 345.246L401.855 320.727Z" fill="#1C1C1C"/>
<path d="M399.399 328.593C398.963 329.828 398.5 331.049 398.023 332.266L479.615 362.61C480.082 361.39 480.543 360.167 480.988 358.935L399.399 328.593Z" fill="#1C1C1C"/>
<path d="M403.799 312.513C403.529 313.881 403.22 315.234 402.904 316.586L487.984 335.012C488.29 333.658 488.592 332.302 488.872 330.938L403.799 312.513Z" fill="#1C1C1C"/>
<path d="M378.737 364.68C378.027 365.522 377.306 366.356 376.572 367.178L442.341 424.15C443.069 423.323 443.791 422.491 444.508 421.653L378.737 364.68Z" fill="#1C1C1C"/>
<path d="M405.082 304.375C404.907 305.799 404.72 307.219 404.492 308.627L490.645 321.011C490.861 319.6 491.056 318.182 491.243 316.761L405.082 304.375Z" fill="#1C1C1C"/>
<path d="M405.849 295.969C405.773 297.447 405.643 298.909 405.514 300.372L492.329 306.504C492.447 305.041 492.544 303.572 492.631 302.099L405.849 295.969Z" fill="#1C1C1C"/>
<path d="M383.934 358.028C383.262 358.953 382.576 359.868 381.879 360.773L451.599 412.854C452.291 411.945 452.977 411.03 453.654 410.109L383.934 358.028Z" fill="#1C1C1C"/>
<path d="M176.202 267.487C176.472 266.119 176.78 264.766 177.097 263.414L92.0163 244.989C91.7104 246.344 91.4088 247.699 91.1289 249.064L176.202 267.487Z" fill="#1C1C1C"/>
<path d="M392.729 343.869C392.158 344.955 391.568 346.028 390.965 347.094L467.399 388.732C467.995 387.662 468.585 386.588 469.162 385.506L392.729 343.869Z" fill="#1C1C1C"/>
<path d="M396.299 336.445C395.791 337.607 395.28 338.765 394.734 339.906L473.896 376.049C474.432 374.904 474.964 373.754 475.481 372.597L396.299 336.445Z" fill="#1C1C1C"/>
<path d="M388.536 351.195C387.91 352.202 387.275 353.201 386.619 354.185L459.83 401.222C460.479 400.233 461.122 399.238 461.754 398.236L388.536 351.195Z" fill="#1C1C1C"/>
<path d="M174.152 284.03C174.227 282.553 174.358 281.091 174.487 279.628L87.6707 273.496C87.5533 274.959 87.4561 276.428 87.3691 277.901L174.152 284.03Z" fill="#1C1C1C"/>
<path d="M174.918 275.624C175.094 274.2 175.281 272.781 175.508 271.373L89.3552 258.988C89.1392 260.399 88.9449 261.817 88.7578 263.238L174.918 275.624Z" fill="#1C1C1C"/>
</svg>
