<svg width="770" height="770" viewBox="0 0 770 770" fill="none" xmlns="http://www.w3.org/2000/svg">
<path d="M420.525 117.833C422.412 118.081 424.295 118.339 426.168 118.626L442.599 4.32169L436.959 3.51126L420.525 117.833Z" fill="#1C1C1C"/>
<path d="M511.793 147.149C513.229 147.915 514.655 148.698 516.076 149.49L571.32 48.0787L567.033 45.7437L511.793 147.149Z" fill="#1C1C1C"/>
<path d="M494.656 138.758C496.192 139.443 497.719 140.148 499.24 140.862L547.195 35.8244L542.608 33.73L494.656 138.758Z" fill="#1C1C1C"/>
<path d="M476.52 131.449C478.154 132.04 479.779 132.65 481.397 133.272L521.643 25.054L516.764 23.2388L476.52 131.449Z" fill="#1C1C1C"/>
<path d="M458.346 125.606C460.072 126.093 461.786 126.607 463.499 127.127L496.02 16.3431L490.865 14.8301L458.346 125.606Z" fill="#1C1C1C"/>
<path d="M439.348 120.983C441.159 121.354 442.959 121.753 444.757 122.161L469.197 9.30941L463.786 8.13901L439.348 120.983Z" fill="#1C1C1C"/>
<path d="M381.988 115.538C382.993 115.527 383.994 115.5 385.001 115.5C386.008 115.5 387.009 115.527 388.014 115.538V0.0385C387.009 0.0308 386.008 0 385.001 0C383.994 0 382.993 0.0308 381.988 0.0385V115.538Z" fill="#1C1C1C"/>
<path d="M768.972 356.886L768.901 355.914L653.711 364.251C653.776 365.109 653.819 365.976 653.875 366.836L769.072 358.497C769.038 357.962 769.013 357.421 768.972 356.886Z" fill="#1C1C1C"/>
<path d="M591.121 59.8154L528.693 156.982C530.024 157.821 531.342 158.676 532.655 159.536L595.087 62.3641L591.121 59.8154Z" fill="#1C1C1C"/>
<path d="M599.393 221.71C600.18 222.744 600.965 223.777 601.739 224.823L694.128 155.505L692.216 152.957C692.074 152.768 691.925 152.581 691.783 152.393L599.393 221.71Z" fill="#1C1C1C"/>
<path d="M401.062 115.989C403.016 116.105 404.966 116.234 406.911 116.389L415.05 1.16283L413.15 1.02808C411.837 0.933757 410.518 0.858682 409.201 0.777832L401.062 115.989Z" fill="#1C1C1C"/>
<path d="M765.867 328.725L651.566 345.195C651.701 346.102 651.822 347.012 651.948 347.921L766.258 331.448L765.867 328.725Z" fill="#1C1C1C"/>
<path d="M655.437 111.005L573.852 192.76C574.856 193.748 575.855 194.741 576.845 195.744L658.432 113.987C657.441 112.986 656.44 111.995 655.437 111.005Z" fill="#1C1C1C"/>
<path d="M760.792 301.295L647.998 325.972C648.21 326.919 648.416 327.87 648.618 328.821L761.415 304.144L760.792 301.295Z" fill="#1C1C1C"/>
<path d="M544.457 167.735C545.679 168.634 546.894 169.542 548.101 170.463L617.228 77.924C617.099 77.8258 616.972 77.7277 616.845 77.6295L613.674 75.2617C613.645 75.2406 613.615 75.2194 613.584 75.1963L544.457 167.735Z" fill="#1C1C1C"/>
<path d="M587.297 206.955C588.192 207.971 589.081 208.993 589.961 210.023L677.239 134.369C676.965 134.051 676.7 133.726 676.426 133.408L675.779 132.661C675.383 132.203 674.973 131.757 674.574 131.302L587.297 206.955Z" fill="#1C1C1C"/>
<path d="M559.781 179.876C560.894 180.825 561.999 181.784 563.096 182.752L638.72 95.4492C638.25 95.0372 637.79 94.6157 637.318 94.2056L636.6 93.5839C636.206 93.2431 635.801 92.912 635.405 92.5732L559.781 179.876Z" fill="#1C1C1C"/>
<path d="M610.682 237.672C611.363 238.714 612.043 239.757 612.709 240.808L709.846 178.352L707.827 175.21L610.682 237.672Z" fill="#1C1C1C"/>
<path d="M636.877 288.994C637.262 290.005 637.657 291.01 638.03 292.026L746.14 251.563L745.004 248.525L636.877 288.994Z" fill="#1C1C1C"/>
<path d="M643.172 307.509C643.466 308.493 643.767 309.475 644.05 310.462L754.808 277.907L753.94 274.952L643.172 307.509Z" fill="#1C1C1C"/>
<path d="M620.555 254.002C621.134 255.041 621.717 256.079 622.283 257.126L723.56 201.678L721.844 198.546L620.555 254.002Z" fill="#1C1C1C"/>
<path d="M225.542 602.265C224.32 601.366 223.105 600.458 221.898 599.537L152.771 692.076C152.9 692.174 153.028 692.274 153.156 692.372L156.325 694.74C156.354 694.761 156.385 694.783 156.416 694.806L225.542 602.265Z" fill="#1C1C1C"/>
<path d="M629.445 271.417C629.925 272.447 630.41 273.473 630.877 274.511L735.877 226.526L734.46 223.427L629.445 271.417Z" fill="#1C1C1C"/>
<path d="M293.483 638.55C291.849 637.959 290.224 637.348 288.605 636.727L248.359 744.944L253.239 746.76L293.483 638.55Z" fill="#1C1C1C"/>
<path d="M311.653 644.394C309.926 643.907 308.213 643.393 306.499 642.873L273.979 753.657L279.134 755.17L311.653 644.394Z" fill="#1C1C1C"/>
<path d="M140.556 498.583C140.077 497.553 139.592 496.527 139.124 495.489L34.125 543.474L35.5418 546.573L140.556 498.583Z" fill="#1C1C1C"/>
<path d="M330.654 649.018C328.842 648.646 327.042 648.248 325.244 647.84L300.805 760.691L306.216 761.861L330.654 649.018Z" fill="#1C1C1C"/>
<path d="M275.344 631.242C273.808 630.557 272.281 629.852 270.76 629.14L222.805 734.178L227.392 736.272L275.344 631.242Z" fill="#1C1C1C"/>
<path d="M149.442 515.998C148.863 514.959 148.28 513.921 147.714 512.874L46.4375 568.322L48.1527 571.454L149.442 515.998Z" fill="#1C1C1C"/>
<path d="M159.317 532.326C158.635 531.285 157.956 530.241 157.29 529.19L60.1523 591.647L62.1717 594.789L159.317 532.326Z" fill="#1C1C1C"/>
<path d="M258.206 622.851C256.77 622.085 255.344 621.302 253.923 620.51L198.68 721.921L202.967 724.256L258.206 622.851Z" fill="#1C1C1C"/>
<path d="M178.88 710.185L241.307 613.018C239.977 612.179 238.659 611.324 237.346 610.464L174.914 707.636L178.88 710.185Z" fill="#1C1C1C"/>
<path d="M349.472 652.167C347.586 651.919 345.703 651.661 343.83 651.374L327.398 765.679L333.039 766.489L349.472 652.167Z" fill="#1C1C1C"/>
<path d="M368.938 654.009C366.984 653.893 365.034 653.764 363.09 653.608L354.951 768.835L356.851 768.97C358.164 769.064 359.483 769.139 360.799 769.22L368.938 654.009Z" fill="#1C1C1C"/>
<path d="M388.014 654.461C387.009 654.473 386.008 654.5 385.001 654.5C383.994 654.5 382.993 654.473 381.988 654.461V769.961C382.993 769.969 383.994 770 385.001 770C386.008 770 387.009 769.969 388.014 769.961V654.461Z" fill="#1C1C1C"/>
<path d="M1.02778 413.115L1.099 414.087L116.289 405.75C116.224 404.891 116.181 404.025 116.125 403.164L0.923828 411.501C0.962328 412.038 0.987353 412.577 1.02778 413.115Z" fill="#1C1C1C"/>
<path d="M114.564 658.995L196.149 577.24C195.144 576.252 194.145 575.259 193.156 574.256L111.568 656.013C112.56 657.012 113.561 658.003 114.564 658.995Z" fill="#1C1C1C"/>
<path d="M170.606 548.29C169.819 547.256 169.033 546.223 168.26 545.177L75.8711 614.495L77.7826 617.043C77.9251 617.232 78.0733 617.419 78.2157 617.607L170.606 548.29Z" fill="#1C1C1C"/>
<path d="M4.13101 441.273L118.432 424.803C118.297 423.896 118.176 422.986 118.051 422.077L3.74023 438.55L4.13101 441.273Z" fill="#1C1C1C"/>
<path d="M133.122 481.004C132.737 479.993 132.343 478.988 131.969 477.972L23.8594 518.435L24.9951 521.473L133.122 481.004Z" fill="#1C1C1C"/>
<path d="M182.705 563.045C181.81 562.029 180.921 561.006 180.041 559.977L92.7656 635.631C93.039 635.949 93.3046 636.274 93.578 636.592L94.2248 637.337C94.6233 637.795 95.0314 638.241 95.4318 638.696L182.705 563.045Z" fill="#1C1C1C"/>
<path d="M210.218 590.124C209.105 589.175 208 588.216 206.903 587.248L131.279 674.551C131.749 674.963 132.209 675.384 132.681 675.794L133.399 676.416C133.793 676.757 134.2 677.088 134.596 677.429L210.218 590.124Z" fill="#1C1C1C"/>
<path d="M126.83 462.491C126.535 461.507 126.235 460.527 125.952 459.538L15.1934 492.096L16.0615 495.05L126.83 462.491Z" fill="#1C1C1C"/>
<path d="M121.999 444.028C121.787 443.081 121.581 442.13 121.379 441.179L8.58203 465.856L9.20573 468.703L121.999 444.028Z" fill="#1C1C1C"/>
<path d="M372.593 231.541C373.453 231.472 374.312 231.398 375.176 231.344L366.835 116.122C365.975 116.179 365.109 116.22 364.25 116.285L372.593 231.541Z" fill="#1C1C1C"/>
<path d="M350.667 234.888C351.616 234.673 352.553 234.43 353.508 234.232L328.82 121.379C327.869 121.581 326.918 121.787 325.971 121.999L350.667 234.888Z" fill="#1C1C1C"/>
<path d="M361.671 232.757C362.574 232.621 363.492 232.532 364.401 232.411L347.921 118.05C347.013 118.176 346.102 118.297 345.195 118.432L361.671 232.757Z" fill="#1C1C1C"/>
<path d="M329.504 241.349C330.513 240.958 331.512 240.552 332.53 240.182L292.028 131.97C291.012 132.343 290.007 132.738 288.996 133.123L329.504 241.349Z" fill="#1C1C1C"/>
<path d="M340.09 237.672C341.07 237.374 342.065 237.11 343.053 236.831L310.461 125.949C309.473 126.232 308.491 126.532 307.508 126.827L340.09 237.672Z" fill="#1C1C1C"/>
<path d="M319.441 245.642C320.467 245.158 321.508 244.698 322.548 244.238L274.511 139.126C273.474 139.591 272.448 140.078 271.418 140.558L319.441 245.642Z" fill="#1C1C1C"/>
<path d="M236.505 344.207C236.978 342.478 237.448 340.746 237.981 339.042L127.128 306.5C126.608 308.212 126.094 309.927 125.607 311.653L236.505 344.207Z" fill="#1C1C1C"/>
<path d="M282.621 269.994C283.632 269.094 284.658 268.208 285.691 267.334L210.024 180.041C208.994 180.921 207.971 181.81 206.955 182.705L282.621 269.994Z" fill="#1C1C1C"/>
<path d="M254.185 303.757C255.017 302.421 255.86 301.095 256.73 299.787L159.537 237.342C158.674 238.655 157.822 239.976 156.982 241.304L254.185 303.757Z" fill="#1C1C1C"/>
<path d="M309.49 250.796C310.528 250.211 311.561 249.626 312.612 249.064L257.126 147.716C256.079 148.282 255.041 148.866 254.002 149.445L309.49 250.796Z" fill="#1C1C1C"/>
<path d="M243.878 323.34C244.552 321.798 245.231 320.26 245.955 318.745L140.862 270.763C140.15 272.284 139.443 273.81 138.758 275.346L243.878 323.34Z" fill="#1C1C1C"/>
<path d="M239.765 333.764C240.345 332.124 240.959 330.503 241.592 328.888L133.272 288.603C132.652 290.222 132.04 291.847 131.449 293.481L239.765 333.764Z" fill="#1C1C1C"/>
<path d="M260.294 294.685C261.185 293.457 262.096 292.242 263.022 291.041L170.462 221.899C169.544 223.106 168.633 224.32 167.734 225.543L260.294 294.685Z" fill="#1C1C1C"/>
<path d="M248.621 313.484C249.379 312.042 250.163 310.618 250.964 309.203L149.491 253.925C148.698 255.345 147.917 256.772 147.148 258.208L248.621 313.484Z" fill="#1C1C1C"/>
<path d="M291.046 263.02C292.075 262.227 293.107 261.44 294.156 260.671L224.822 168.26C223.776 169.034 222.743 169.819 221.709 170.606L291.046 263.02Z" fill="#1C1C1C"/>
<path d="M300.154 256.495C301.191 255.807 302.242 255.141 303.297 254.479L240.808 157.292C239.757 157.958 238.713 158.637 237.672 159.319L300.154 256.495Z" fill="#1C1C1C"/>
<path d="M267.195 285.855C268.138 284.736 269.095 283.629 270.069 282.538L182.755 206.903C181.788 208 180.83 209.105 179.879 210.218L267.195 285.855Z" fill="#1C1C1C"/>
<path d="M274.536 277.752C275.517 276.742 276.511 275.743 277.519 274.757L195.745 193.154C194.743 194.144 193.749 195.143 192.762 196.148L274.536 277.752Z" fill="#1C1C1C"/>
<path d="M495.466 492.247C494.484 493.258 493.491 494.257 492.482 495.242L574.256 576.845C575.259 575.856 576.253 574.857 577.24 573.852L495.466 492.247Z" fill="#1C1C1C"/>
<path d="M231 385C231 383.989 231.058 382.992 231.077 381.987H115.539C115.527 382.99 115.5 383.993 115.5 385C115.5 386.007 115.527 387.008 115.539 388.013H231.077C231.058 387.008 231 386.011 231 385Z" fill="#1C1C1C"/>
<path d="M539.001 385C539.001 386.011 538.943 387.008 538.924 388.013H654.462C654.474 387.008 654.501 386.007 654.501 385C654.501 383.993 654.474 382.992 654.462 381.987H538.924C538.943 382.992 539.001 383.989 539.001 385Z" fill="#1C1C1C"/>
<path d="M450.56 524.358C449.534 524.841 448.493 525.301 447.453 525.762L495.49 630.874C496.527 630.408 497.553 629.921 498.583 629.442L450.56 524.358Z" fill="#1C1C1C"/>
<path d="M460.509 519.203C459.471 519.788 458.438 520.373 457.387 520.934L512.873 622.281C513.92 621.715 514.958 621.132 515.997 620.552L460.509 519.203Z" fill="#1C1C1C"/>
<path d="M469.847 513.505C468.809 514.192 467.758 514.858 466.703 515.52L529.192 612.708C530.244 612.04 531.287 611.362 532.328 610.681L469.847 513.505Z" fill="#1C1C1C"/>
<path d="M478.956 506.979C477.927 507.772 476.895 508.56 475.846 509.328L545.18 601.739C546.226 600.965 547.259 600.18 548.293 599.393L478.956 506.979Z" fill="#1C1C1C"/>
<path d="M408.329 537.24C407.426 537.377 406.508 537.465 405.6 537.587L422.08 651.947C422.988 651.822 423.899 651.701 424.805 651.566L408.329 537.24Z" fill="#1C1C1C"/>
<path d="M487.379 500.005C486.368 500.906 485.342 501.791 484.309 502.665L559.976 589.958C561.006 589.079 562.029 588.189 563.045 587.294L487.379 500.005Z" fill="#1C1C1C"/>
<path d="M397.406 538.459C396.545 538.528 395.687 538.601 394.822 538.655L403.163 653.878C404.024 653.82 404.89 653.78 405.749 653.714L397.406 538.459Z" fill="#1C1C1C"/>
<path d="M429.91 532.328C428.93 532.626 427.935 532.89 426.947 533.169L459.539 644.051C460.527 643.768 461.509 643.467 462.492 643.173L429.91 532.328Z" fill="#1C1C1C"/>
<path d="M419.334 535.109C418.384 535.325 417.447 535.567 416.492 535.766L441.18 648.619C442.131 648.417 443.082 648.211 444.029 647.999L419.334 535.109Z" fill="#1C1C1C"/>
<path d="M440.499 528.651C439.49 529.042 438.491 529.448 437.473 529.818L477.975 638.03C478.991 637.656 479.996 637.261 481.007 636.876L440.499 528.651Z" fill="#1C1C1C"/>
<path d="M533.498 425.793C533.024 427.521 532.555 429.254 532.023 430.957L642.875 463.498C643.394 461.786 643.908 460.071 644.395 458.344L533.498 425.793Z" fill="#1C1C1C"/>
<path d="M530.237 436.235C529.658 437.876 529.043 439.496 528.41 441.112L636.73 481.396C637.35 479.777 637.962 478.152 638.553 476.518L530.237 436.235Z" fill="#1C1C1C"/>
<path d="M536.076 414.887C535.718 416.705 535.308 418.501 534.889 420.295L647.84 444.758C648.246 442.96 648.647 441.16 649.018 439.348L536.076 414.887Z" fill="#1C1C1C"/>
<path d="M502.806 484.143C501.862 485.261 500.906 486.368 499.932 487.46L587.246 563.095C588.212 561.998 589.171 560.893 590.122 559.78L502.806 484.143Z" fill="#1C1C1C"/>
<path d="M537.782 404.084C537.549 405.974 537.3 407.859 536.998 409.728L651.374 426.17C651.661 424.297 651.919 422.414 652.167 420.527L537.782 404.084Z" fill="#1C1C1C"/>
<path d="M538.8 392.925C538.7 394.887 538.527 396.827 538.355 398.769L653.611 406.91C653.767 404.968 653.896 403.018 654.011 401.062L538.8 392.925Z" fill="#1C1C1C"/>
<path d="M509.706 475.313C508.815 476.541 507.904 477.756 506.979 478.957L599.538 548.099C600.457 546.892 601.367 545.678 602.266 544.455L509.706 475.313Z" fill="#1C1C1C"/>
<path d="M233.922 355.112C234.28 353.295 234.69 351.499 235.11 349.705L122.159 325.244C121.752 327.042 121.352 328.842 120.98 330.653L233.922 355.112Z" fill="#1C1C1C"/>
<path d="M521.382 456.515C520.623 457.957 519.84 459.382 519.039 460.796L620.512 516.075C621.303 514.654 622.086 513.228 622.852 511.792L521.382 456.515Z" fill="#1C1C1C"/>
<path d="M526.124 446.659C525.45 448.201 524.771 449.739 524.047 451.254L629.14 499.237C629.853 497.716 630.559 496.19 631.244 494.653L526.124 446.659Z" fill="#1C1C1C"/>
<path d="M515.814 466.242C514.983 467.578 514.14 468.905 513.27 470.212L610.463 532.657C611.325 531.344 612.178 530.023 613.017 528.693L515.814 466.242Z" fill="#1C1C1C"/>
<path d="M231.2 377.075C231.3 375.113 231.473 373.173 231.644 371.23L116.389 363.089C116.233 365.032 116.104 366.982 115.988 368.938L231.2 377.075Z" fill="#1C1C1C"/>
<path d="M232.219 365.915C232.452 364.025 232.701 362.14 233.003 360.271L118.627 343.83C118.34 345.703 118.082 347.585 117.834 349.472L232.219 365.915Z" fill="#1C1C1C"/>
</svg>
