<svg width="121" height="24" viewBox="0 0 121 24" fill="none" xmlns="http://www.w3.org/2000/svg">
<path d="M91.4889 10.3693H85.9763V3.84686H81.8418V20.153H85.9763V13.6305H91.4889V20.153H95.6234V3.84686H91.4889V10.3693Z" fill="#F7F7F7"/>
<path d="M120.428 16.4258H115.834V20.1529H120.428V16.4258Z" fill="#F7F7F7"/>
<path d="M40.5154 11.5462C41.7151 11.0726 42.5652 9.88995 42.5652 8.50578C42.5652 5.93265 40.5085 3.84686 37.9713 3.84686H29.4727V20.153H38.6604C41.1976 20.153 43.2543 18.0672 43.2543 15.4941C43.2543 13.6751 42.1122 12.1267 40.5154 11.5462ZM33.6071 7.10813H36.8228C37.7109 7.10813 38.4307 7.83819 38.4307 8.73873C38.4307 9.63927 37.7108 10.3693 36.8228 10.3693H33.6071V7.10813ZM37.5119 16.8919H33.6071V13.6306H37.5119C38.3999 13.6306 39.1198 14.3607 39.1198 15.2612C39.1198 16.1618 38.4 16.8919 37.5119 16.8919Z" fill="#F7F7F7"/>
<path d="M72.883 6.8751C72.9603 6.8751 73.2649 6.8751 73.3424 6.8751C74.7377 6.8751 75.869 8.0223 75.869 9.4375H79.9667C79.6228 6.1639 76.8912 3.61389 73.5721 3.61389C73.4175 3.61389 72.8078 3.61389 72.6533 3.61389C68.9745 3.61389 65.9922 6.63837 65.9922 10.3693V13.6305C65.9922 17.3615 68.9745 20.3859 72.6533 20.3859C72.8078 20.3859 73.4175 20.3859 73.5721 20.3859C76.8912 20.3859 79.6228 17.8359 79.9667 14.5623H75.869C75.869 15.9775 74.7378 17.1247 73.3424 17.1247C73.2649 17.1247 72.9603 17.1247 72.883 17.1247C71.3607 17.1247 70.1266 15.8732 70.1266 14.3294V9.67046C70.1266 8.12665 71.3607 6.8751 72.883 6.8751Z" fill="#F7F7F7"/>
<path d="M59.793 3.84686H58.6445L54.6249 15.7367L50.6053 3.84686H49.4568H47.3895H45.3223V20.153H49.4568V9.96165L52.9022 20.153H53.1319H56.1179H56.3476L59.793 9.96165V20.153H63.9274V3.84686H61.8602H59.793Z" fill="#F7F7F7"/>
<path d="M108.945 14.1874L102.973 3.84686H102.513H99.0679H98.3789V20.153H102.513V9.8125L108.485 20.153H108.945H112.39H113.079V3.84686H108.945V14.1874Z" fill="#F7F7F7"/>
<path d="M4.38299 15.7344C4.30225 15.5702 4.22665 15.4032 4.15654 15.2335L0.931641 16.7281C0.94995 16.7713 0.96891 16.8142 0.987751 16.8571L1.08763 17.0787C1.1109 17.1289 1.13382 17.1793 1.15774 17.2292L4.38299 15.7344Z" fill="#F7F7F7"/>
<path d="M5.74366 17.7242C5.60385 17.5723 5.46972 17.4152 5.34149 17.2533L2.66211 19.6088C2.72489 19.6863 2.78851 19.763 2.85324 19.8389L2.87368 19.8628C2.93628 19.9359 2.99984 20.0082 3.06422 20.0797L5.74366 17.7242Z" fill="#F7F7F7"/>
<path d="M9.82239 20.1461C9.57538 20.0852 9.33345 20.0131 9.09678 19.9308L8.09766 23.3825C8.16387 23.4045 8.23043 23.4258 8.29723 23.4467L8.61553 23.5414C8.68446 23.5609 8.75392 23.579 8.82338 23.5972L9.82239 20.1461Z" fill="#F7F7F7"/>
<path d="M5.20997 6.91792C5.42095 6.63752 5.64858 6.37163 5.89128 6.1216L3.20847 3.76477C3.11379 3.86606 3.02124 3.96945 2.92998 4.07416L2.77323 4.25769C2.68977 4.35748 2.60773 4.45859 2.52734 4.56126L5.20997 6.91792Z" fill="#F7F7F7"/>
<path d="M4.05177 9.03654C4.18342 8.68193 4.33729 8.33972 4.51212 8.01177L1.28285 6.51654C1.23601 6.60885 1.19024 6.70181 1.14564 6.79556L0.950612 7.22875C0.906432 7.33208 0.86367 7.43625 0.822266 7.54119L4.05177 9.03654Z" fill="#F7F7F7"/>
<path d="M7.61241 19.2384C7.41467 19.1208 7.22223 18.9957 7.03601 18.8627L5.11914 21.8885C5.14548 21.9069 5.17141 21.9255 5.19793 21.9436L5.59703 22.2037C5.62969 22.2241 5.66206 22.245 5.69496 22.2651L7.61241 19.2384Z" fill="#F7F7F7"/>
<path d="M18.3688 17.082C18.1578 17.3624 17.9302 17.6283 17.6875 17.8783L20.3703 20.2351C20.465 20.1338 20.5575 20.0304 20.6488 19.9257L20.8056 19.7423C20.889 19.6425 20.971 19.5414 21.0514 19.4387L18.3688 17.082Z" fill="#F7F7F7"/>
<path d="M19.5268 14.9633C19.3951 15.3179 19.2412 15.6601 19.0664 15.9881L22.2957 17.4833C22.3425 17.391 22.3883 17.298 22.4329 17.2043L22.6279 16.7711C22.6721 16.6678 22.7149 16.5636 22.7563 16.4587L19.5268 14.9633Z" fill="#F7F7F7"/>
<path d="M12.2039 20.3763C11.9307 20.3899 11.6548 20.3899 11.377 20.3755L11.3782 23.9731C11.4663 23.9763 11.5542 23.9788 11.6419 23.98L11.9584 23.9799C12.0408 23.9788 12.1231 23.9773 12.2051 23.9744L12.2039 20.3763Z" fill="#F7F7F7"/>
<path d="M16.6603 18.7755C16.3994 18.9685 16.1274 19.1461 15.8457 19.3072L17.7646 22.3338C17.8967 22.2551 18.0276 22.1743 18.1565 22.0905L18.1837 22.0728C18.3174 21.9854 18.4491 21.8949 18.5792 21.8022L16.6603 18.7755Z" fill="#F7F7F7"/>
<path d="M14.5505 19.9064C14.2694 20.0075 13.9822 20.094 13.6895 20.1641L14.6899 23.616C14.7626 23.5973 14.8349 23.578 14.9071 23.5579L15.3577 23.4235C15.4225 23.4027 15.4868 23.3808 15.5512 23.3588L14.5505 19.9064Z" fill="#F7F7F7"/>
<path d="M6.91503 5.22445C7.17591 5.03145 7.4479 4.85391 7.72958 4.69278L5.81071 1.6662C5.67858 1.74491 5.54769 1.82565 5.41876 1.90945L5.39159 1.92718C5.25787 2.01458 5.12621 2.10503 4.99609 2.19775L6.91503 5.22445Z" fill="#F7F7F7"/>
<path d="M23.5122 10.5137L23.4469 10.0541L19.9375 10.567C19.9643 10.7239 19.9869 10.882 20.0049 11.0413L23.5139 10.5285C23.5134 10.5235 23.5128 10.5186 23.5122 10.5137Z" fill="#F7F7F7"/>
<path d="M0.0642718 13.4866L0.129538 13.9458L3.63895 13.433C3.61213 13.276 3.58951 13.118 3.57155 12.9587L0.0625 13.4715C0.0630906 13.4765 0.0636812 13.4815 0.0642718 13.4866Z" fill="#F7F7F7"/>
<path d="M19.1934 8.26562C19.2741 8.42987 19.3497 8.59687 19.4198 8.76657L22.6447 7.27194C22.6264 7.22875 22.6074 7.18586 22.5886 7.14291L22.4887 6.92134C22.4654 6.87109 22.4425 6.82071 22.4186 6.77081L19.1934 8.26562Z" fill="#F7F7F7"/>
<path d="M3.53964 11.4027C3.55376 11.2048 3.57443 11.0061 3.60266 10.8067C3.6309 10.6073 3.66634 10.4108 3.70768 10.2169L0.193428 9.70453C0.15604 9.89956 0.123024 10.0965 0.0948501 10.2953C0.0666766 10.4942 0.0437005 10.6925 0.0253906 10.8904L3.53964 11.4027Z" fill="#F7F7F7"/>
<path d="M20.0353 12.5972C20.0212 12.795 20.0005 12.9937 19.9723 13.1931C19.944 13.3925 19.9086 13.5891 19.8672 13.783L23.3814 14.2953C23.4188 14.1002 23.4518 13.9033 23.48 13.7045C23.5082 13.5057 23.5312 13.3073 23.5495 13.1095L20.0353 12.5972Z" fill="#F7F7F7"/>
<path d="M11.3704 3.62367C11.6436 3.61002 11.9194 3.61007 12.1973 3.62439L12.1961 0.0268469C12.108 0.0236123 12.0201 0.0211565 11.9324 0.0199585L11.6159 0.0200782C11.5335 0.0211564 11.4512 0.0226541 11.3691 0.0255294L11.3704 3.62367Z" fill="#F7F7F7"/>
<path d="M13.75 3.85386C13.997 3.91478 14.2389 3.98684 14.4756 4.06914L15.4747 0.617454C15.4085 0.595471 15.342 0.574147 15.2752 0.553301L14.9569 0.458539C14.8879 0.439132 14.8185 0.420982 14.749 0.402832L13.75 3.85386Z" fill="#F7F7F7"/>
<path d="M17.8301 6.27574C17.9699 6.42771 18.104 6.58477 18.2322 6.74668L20.9116 4.39122C20.8488 4.31371 20.7852 4.23698 20.7205 4.16109L20.7001 4.13719C20.6375 4.06411 20.5739 3.99181 20.5095 3.92023L17.8301 6.27574Z" fill="#F7F7F7"/>
<path d="M9.02801 4.09347C9.30909 3.9923 9.59632 3.9058 9.88904 3.83572L8.88856 0.38385C8.81644 0.402359 8.74462 0.421647 8.67297 0.441534L8.22007 0.576549C8.15557 0.597334 8.09143 0.619078 8.02734 0.641002L9.02801 4.09347Z" fill="#F7F7F7"/>
<path d="M15.9648 4.7615C16.1626 4.87902 16.355 5.00421 16.5413 5.13713L18.4581 2.11133C18.4318 2.093 18.4058 2.07431 18.3793 2.05622L17.9802 1.7962C17.9476 1.77577 17.9152 1.75487 17.8823 1.73474L15.9648 4.7615Z" fill="#F7F7F7"/>
<path d="M13.8867 7.708C14.1993 7.86571 14.4924 8.05721 14.761 8.27836L16.6836 5.24358C16.405 5.03555 16.1131 4.84489 15.8094 4.67297L13.8867 7.708Z" fill="#F7F7F7"/>
<path d="M16.4977 12.3001C16.4819 12.5593 16.4455 12.8127 16.3906 13.0591L19.9061 13.5716C19.9527 13.3223 19.9886 13.0692 20.013 12.8126L16.4977 12.3001Z" fill="#F7F7F7"/>
<path d="M15.0215 8.50744C15.2571 8.73188 15.4699 8.98053 15.6562 9.24954L18.3427 6.88786C18.1453 6.62801 17.9333 6.38026 17.7078 6.14581L15.0215 8.50744Z" fill="#F7F7F7"/>
<path d="M16.2165 13.6694C16.1364 13.888 16.041 14.0991 15.9316 14.3013L19.1612 15.7967C19.2644 15.5908 19.3592 15.3799 19.4458 15.1647L16.2165 13.6694Z" fill="#F7F7F7"/>
<path d="M15.875 9.6035C16.0242 9.86491 16.1497 10.1417 16.2486 10.4313L19.4822 8.93268C19.3721 8.64882 19.2468 8.3728 19.1081 8.10504L15.875 9.6035Z" fill="#F7F7F7"/>
<path d="M16.3828 10.9041C16.4448 11.173 16.4855 11.4501 16.5008 11.7342L20.0164 11.2204C19.9909 10.9394 19.9516 10.6625 19.8994 10.3902L16.3828 10.9041Z" fill="#F7F7F7"/>
<path d="M11.786 7.20802C11.9861 7.20802 12.1829 7.2221 12.3766 7.2466V3.63552C12.1814 3.62156 11.9846 3.61401 11.786 3.61401C11.5873 3.61401 11.3904 3.62156 11.1953 3.63552V7.2466C11.3889 7.2221 11.5858 7.20802 11.786 7.20802Z" fill="#F7F7F7"/>
<path d="M11.786 16.7921C11.5858 16.7921 11.3889 16.778 11.1953 16.7535V20.3646C11.3905 20.3785 11.5873 20.3861 11.786 20.3861C11.9846 20.3861 12.1814 20.3785 12.3766 20.3646V16.7535C12.183 16.778 11.9861 16.7921 11.786 16.7921Z" fill="#F7F7F7"/>
<path d="M14.3427 19.9763L13.3421 16.5242C13.1942 16.5766 13.0429 16.6216 12.8887 16.6591L13.8893 20.1115C14.0423 20.0708 14.1933 20.0256 14.3427 19.9763Z" fill="#F7F7F7"/>
<path d="M14.5643 15.8746C14.4182 15.9826 14.2656 16.0821 14.1074 16.1729L16.0265 19.1998C16.1822 19.1053 16.3345 19.0056 16.4833 18.9012L14.5643 15.8746Z" fill="#F7F7F7"/>
<path d="M15.5488 14.8951C15.4247 15.0608 15.2904 15.2181 15.1465 15.3659L17.8284 17.7219C17.9682 17.5702 18.1023 17.4132 18.2308 17.2513L15.5488 14.8951Z" fill="#F7F7F7"/>
<path d="M10.229 7.47585C10.377 7.4235 10.5282 7.37845 10.6824 7.34102L9.68183 3.88861C9.52891 3.92934 9.37783 3.97457 9.22852 4.02375L10.229 7.47585Z" fill="#F7F7F7"/>
<path d="M8.55164 15.4926C8.31598 15.2681 8.10323 15.0195 7.91688 14.7505L5.23047 17.1122C5.4278 17.372 5.63984 17.6198 5.86529 17.8542L8.55164 15.4926Z" fill="#F7F7F7"/>
<path d="M7.1863 13.0958C7.12428 12.827 7.08358 12.5499 7.06829 12.2657L3.55273 12.7795C3.57825 13.0605 3.61747 13.3374 3.66968 13.6097L7.1863 13.0958Z" fill="#F7F7F7"/>
<path d="M7.697 14.3966C7.54781 14.1352 7.4223 13.8584 7.32336 13.5688L4.08984 15.0674C4.19988 15.3513 4.32521 15.6273 4.46396 15.8951L7.697 14.3966Z" fill="#F7F7F7"/>
<path d="M10.996 16.7243C10.6243 16.6609 10.2671 16.5544 9.93023 16.4084L8.92773 19.8718C9.27273 20.0006 9.62859 20.1063 9.99343 20.1881L10.996 16.7243Z" fill="#F7F7F7"/>
<path d="M9.68358 16.2921C9.37095 16.1344 9.07788 15.9429 8.80931 15.7217L6.88672 18.7565C7.16526 18.9646 7.45716 19.1552 7.76087 19.3271L9.68358 16.2921Z" fill="#F7F7F7"/>
<path d="M7.06994 11.7C7.08577 11.4408 7.12216 11.1875 7.17703 10.941L3.66153 10.4285C3.61493 10.6778 3.57902 10.931 3.55469 11.1876L7.06994 11.7Z" fill="#F7F7F7"/>
<path d="M12.5742 7.27574C12.946 7.33911 13.3032 7.44568 13.64 7.59165L14.6425 4.12828C14.2975 3.99944 13.9417 3.89371 13.5768 3.81195L12.5742 7.27574Z" fill="#F7F7F7"/>
<path d="M9.00487 8.12559C9.15105 8.01753 9.30362 7.91804 9.46179 7.82729L7.54268 4.80035C7.38699 4.89488 7.23472 4.99455 7.08594 5.09896L9.00487 8.12559Z" fill="#F7F7F7"/>
<path d="M8.01987 9.10495C8.14397 8.93926 8.27834 8.78196 8.42222 8.63419L5.74029 6.27814C5.60055 6.42986 5.46635 6.58692 5.33789 6.74883L8.01987 9.10495Z" fill="#F7F7F7"/>
<path d="M7.35823 10.3307C7.43838 10.112 7.53371 9.90094 7.6431 9.69872L4.41354 8.20331C4.31029 8.40919 4.21549 8.62015 4.12891 8.83537L7.35823 10.3307Z" fill="#F7F7F7"/>
</svg>
