<svg width="149" height="30" viewBox="0 0 149 30" fill="none" xmlns="http://www.w3.org/2000/svg">
<path d="M112.983 13.007H106.198V5.03508H101.109V24.9648H106.198V16.9929H112.983V24.9648H118.071V5.03508H112.983V13.007Z" fill="#F7F7F7"/>
<path d="M148.601 20.4095H142.947V24.9648H148.601V20.4095Z" fill="#F7F7F7"/>
<path d="M50.2454 14.4454C51.7219 13.8666 52.7682 12.4211 52.7682 10.7293C52.7682 7.58437 50.2369 5.03508 47.1142 5.03508H36.6543V24.9648H47.9623C51.085 24.9648 53.6163 22.4155 53.6163 19.2706C53.6163 17.0474 52.2107 15.1549 50.2454 14.4454ZM41.7429 9.02107H45.7007C46.7936 9.02107 47.6795 9.91337 47.6795 11.014C47.6795 12.1147 46.7935 13.007 45.7007 13.007H41.7429V9.02107ZM46.5488 20.979H41.7429V16.993H46.5488C47.6417 16.993 48.5277 17.8853 48.5277 18.9859C48.5277 20.0867 47.6417 20.979 46.5488 20.979Z" fill="#F7F7F7"/>
<path d="M90.0825 8.73625C90.1777 8.73625 90.5525 8.73625 90.6479 8.73625C92.3653 8.73625 93.7576 10.1384 93.7576 11.8681H98.8009C98.3777 7.86701 95.0158 4.75034 90.9306 4.75034C90.7405 4.75034 89.99 4.75034 89.7999 4.75034C85.272 4.75034 81.6016 8.44692 81.6016 13.007V16.9929C81.6016 21.5529 85.272 25.2495 89.7999 25.2495C89.99 25.2495 90.7405 25.2495 90.9306 25.2495C95.0158 25.2495 98.3777 22.1328 98.8009 18.1318H93.7576C93.7576 19.8614 92.3654 21.2636 90.6479 21.2636C90.5525 21.2636 90.1777 21.2636 90.0825 21.2636C88.209 21.2636 86.6901 19.734 86.6901 17.847V12.1528C86.6901 10.2659 88.209 8.73625 90.0825 8.73625Z" fill="#F7F7F7"/>
<path d="M73.9702 5.03508H72.5568L67.6095 19.5672L62.6623 5.03508H61.2488H58.7045H56.1602V24.9648H61.2488V12.5087L65.4893 24.9648H65.772H69.4471H69.7298L73.9702 12.5087V24.9648H79.0588V5.03508H76.5145H73.9702Z" fill="#F7F7F7"/>
<path d="M134.467 17.6735L127.117 5.03508H126.551H122.311H121.463V24.9648H126.551V12.3264L133.902 24.9648H134.467H138.708H139.556V5.03508H134.467V17.6735Z" fill="#F7F7F7"/>
<path d="M5.77321 19.5643C5.67383 19.3636 5.58078 19.1595 5.4945 18.9521L1.52539 20.7788C1.54793 20.8316 1.57126 20.884 1.59445 20.9365L1.71738 21.2073C1.74602 21.2688 1.77422 21.3303 1.80366 21.3913L5.77321 19.5643Z" fill="#F7F7F7"/>
<path d="M7.45088 21.9963C7.27881 21.8105 7.11372 21.6186 6.9559 21.4207L3.6582 24.2996C3.73548 24.3943 3.81377 24.4881 3.89344 24.5809L3.91859 24.6101C3.99565 24.6994 4.07387 24.7877 4.15311 24.8752L7.45088 21.9963Z" fill="#F7F7F7"/>
<path d="M12.4704 24.9564C12.1664 24.8819 11.8686 24.7939 11.5774 24.6933L10.3477 28.912C10.4291 28.9389 10.5111 28.9649 10.5933 28.9904L10.985 29.1062C11.0699 29.1299 11.1554 29.1521 11.2409 29.1743L12.4704 24.9564Z" fill="#F7F7F7"/>
<path d="M6.78998 8.78869C7.04964 8.44599 7.32981 8.121 7.62851 7.81542L4.32659 4.93484C4.21006 5.05865 4.09615 5.18501 3.98384 5.31298L3.79091 5.5373C3.68819 5.65927 3.58722 5.78285 3.48828 5.90834L6.78998 8.78869Z" fill="#F7F7F7"/>
<path d="M5.36345 11.3781C5.52548 10.9446 5.71485 10.5264 5.93003 10.1256L1.95554 8.29805C1.8979 8.41087 1.84156 8.52449 1.78667 8.63907L1.54664 9.16853C1.49226 9.29482 1.43963 9.42214 1.38867 9.5504L5.36345 11.3781Z" fill="#F7F7F7"/>
<path d="M9.74442 23.847C9.50104 23.7033 9.2642 23.5503 9.035 23.3879L6.67578 27.0861C6.7082 27.1085 6.74012 27.1313 6.77276 27.1534L7.26395 27.4712C7.30415 27.4962 7.34399 27.5218 7.38448 27.5464L9.74442 23.847Z" fill="#F7F7F7"/>
<path d="M22.985 21.2114C22.7253 21.5541 22.4452 21.8791 22.1465 22.1846L25.4484 25.0652C25.5649 24.9414 25.6788 24.815 25.7912 24.6871L25.9841 24.4628C26.0868 24.3409 26.1878 24.2173 26.2867 24.0918L22.985 21.2114Z" fill="#F7F7F7"/>
<path d="M24.4103 18.6219C24.2483 19.0553 24.0589 19.4736 23.8438 19.8744L27.8182 21.7019C27.8759 21.5891 27.9322 21.4754 27.9871 21.3609L28.2271 20.8314C28.2815 20.7051 28.3341 20.5778 28.3851 20.4495L24.4103 18.6219Z" fill="#F7F7F7"/>
<path d="M15.4006 25.2378C15.0644 25.2544 14.7248 25.2544 14.3828 25.2369L14.3843 29.6339C14.4927 29.6378 14.601 29.6408 14.7089 29.6423L15.0985 29.6421C15.1998 29.6408 15.3012 29.639 15.4021 29.6355L15.4006 25.2378Z" fill="#F7F7F7"/>
<path d="M20.8834 23.2812C20.5623 23.5171 20.2275 23.7341 19.8809 23.931L22.2426 27.6302C22.4052 27.534 22.5663 27.4353 22.7249 27.3329L22.7584 27.3112C22.923 27.2044 23.085 27.0938 23.2451 26.9805L20.8834 23.2812Z" fill="#F7F7F7"/>
<path d="M18.2843 24.6634C17.9384 24.787 17.5849 24.8928 17.2246 24.9784L18.456 29.1974C18.5454 29.1745 18.6344 29.1509 18.7232 29.1264L19.2778 28.9621C19.3575 28.9367 19.4367 28.9099 19.5159 28.8831L18.2843 24.6634Z" fill="#F7F7F7"/>
<path d="M8.89106 6.71888C9.21215 6.48299 9.54691 6.26599 9.89359 6.06905L7.5319 2.3699C7.36928 2.4661 7.20819 2.56479 7.0495 2.66721L7.01606 2.68889C6.85148 2.7957 6.68944 2.90625 6.5293 3.01958L8.89106 6.71888Z" fill="#F7F7F7"/>
<path d="M29.3156 13.1834L29.2353 12.6217L24.916 13.2486C24.949 13.4403 24.9769 13.6336 24.999 13.8283L29.3178 13.2015C29.3171 13.1954 29.3163 13.1894 29.3156 13.1834Z" fill="#F7F7F7"/>
<path d="M0.457259 16.817L0.537586 17.3783L4.85686 16.7515C4.82386 16.5597 4.79601 16.3665 4.77391 16.1718L0.455078 16.7986C0.455805 16.8047 0.456532 16.8109 0.457259 16.817Z" fill="#F7F7F7"/>
<path d="M24 10.4357C24.0994 10.6365 24.1924 10.8406 24.2787 11.048L28.2478 9.22124C28.2253 9.16845 28.2019 9.11603 28.1788 9.06354L28.0558 8.79273C28.0272 8.73131 27.999 8.66973 27.9695 8.60875L24 10.4357Z" fill="#F7F7F7"/>
<path d="M4.73539 14.2701C4.75276 14.0282 4.77821 13.7853 4.81295 13.5416C4.8477 13.2979 4.89132 13.0577 4.94221 12.8207L0.616971 12.1945C0.570956 12.4329 0.53032 12.6735 0.495645 12.9166C0.46097 13.1597 0.432691 13.4021 0.410156 13.6439L4.73539 14.2701Z" fill="#F7F7F7"/>
<path d="M25.0389 15.7299C25.0215 15.9718 24.9961 16.2146 24.9614 16.4583C24.9265 16.7021 24.883 16.9423 24.832 17.1792L29.1573 17.8054C29.2033 17.567 29.2439 17.3263 29.2786 17.0833C29.3133 16.8403 29.3415 16.5979 29.3641 16.3561L25.0389 15.7299Z" fill="#F7F7F7"/>
<path d="M14.3746 4.76228C14.7108 4.74559 15.0503 4.74566 15.3924 4.76316L15.3908 0.366161C15.2825 0.362208 15.1742 0.359207 15.0663 0.357742L14.6767 0.357889C14.5754 0.359206 14.474 0.361037 14.373 0.364551L14.3746 4.76228Z" fill="#F7F7F7"/>
<path d="M17.3027 5.04358C17.6067 5.11803 17.9045 5.20611 18.1958 5.3067L19.4255 1.08797C19.344 1.0611 19.2621 1.03504 19.1798 1.00956L18.7881 0.89374C18.7033 0.870019 18.6178 0.847836 18.5322 0.825653L17.3027 5.04358Z" fill="#F7F7F7"/>
<path d="M22.3242 8.00367C22.4963 8.18941 22.6614 8.38137 22.8192 8.57926L26.1169 5.70037C26.0396 5.60563 25.9613 5.51185 25.8817 5.41909L25.8565 5.38988C25.7794 5.30056 25.7012 5.2122 25.622 5.12471L22.3242 8.00367Z" fill="#F7F7F7"/>
<path d="M11.4914 5.33651C11.8373 5.21286 12.1908 5.10714 12.5511 5.02148L11.3197 0.802536C11.231 0.825158 11.1426 0.848733 11.0544 0.873039L10.497 1.03806C10.4176 1.06346 10.3386 1.09004 10.2598 1.11683L11.4914 5.33651Z" fill="#F7F7F7"/>
<path d="M20.0293 6.15295C20.2727 6.29659 20.5095 6.4496 20.7387 6.61206L23.0979 2.91386C23.0655 2.89146 23.0336 2.86862 23.001 2.84651L22.5098 2.5287C22.4696 2.50373 22.4297 2.47818 22.3892 2.45358L20.0293 6.15295Z" fill="#F7F7F7"/>
<path d="M17.4746 9.7541C17.8594 9.94687 18.2201 10.1809 18.5506 10.4512L20.9169 6.74204C20.5741 6.48778 20.2148 6.25475 19.841 6.04463L17.4746 9.7541Z" fill="#F7F7F7"/>
<path d="M20.6904 15.3667C20.6709 15.6835 20.6261 15.9932 20.5586 16.2943L24.8854 16.9207C24.9427 16.616 24.9869 16.3066 25.0169 15.993L20.6904 15.3667Z" fill="#F7F7F7"/>
<path d="M18.8691 10.7313C19.1592 11.0057 19.421 11.3096 19.6504 11.6384L22.9567 8.75185C22.7139 8.43426 22.4529 8.13146 22.1754 7.84491L18.8691 10.7313Z" fill="#F7F7F7"/>
<path d="M20.3408 17.0403C20.2422 17.3075 20.1249 17.5655 19.9902 17.8127L23.9651 19.6404C24.0922 19.3888 24.2088 19.1309 24.3154 18.8679L20.3408 17.0403Z" fill="#F7F7F7"/>
<path d="M19.9238 12.0707C20.1075 12.3902 20.2619 12.7285 20.3837 13.0825L24.3634 11.2508C24.228 10.9039 24.0737 10.5665 23.903 10.2393L19.9238 12.0707Z" fill="#F7F7F7"/>
<path d="M20.5488 13.6605C20.6252 13.9891 20.6752 14.3277 20.6941 14.675L25.0209 14.047C24.9895 13.7036 24.9412 13.3652 24.877 13.0323L20.5488 13.6605Z" fill="#F7F7F7"/>
<path d="M14.8891 9.14306C15.1354 9.14306 15.3776 9.16026 15.616 9.19021V4.77666C15.3758 4.75961 15.1335 4.75038 14.8891 4.75038C14.6446 4.75038 14.4022 4.75961 14.1621 4.77666V9.19021C14.4004 9.16026 14.6427 9.14306 14.8891 9.14306Z" fill="#F7F7F7"/>
<path d="M14.8891 20.8568C14.6427 20.8568 14.4004 20.8396 14.1621 20.8097V25.2232C14.4023 25.2403 14.6446 25.2495 14.8891 25.2495C15.1335 25.2495 15.3758 25.2403 15.616 25.2232V20.8097C15.3777 20.8396 15.1354 20.8568 14.8891 20.8568Z" fill="#F7F7F7"/>
<path d="M18.0356 24.7488L16.8042 20.5296C16.6221 20.5936 16.436 20.6486 16.2461 20.6944L17.4776 24.914C17.6659 24.8643 17.8518 24.809 18.0356 24.7488Z" fill="#F7F7F7"/>
<path d="M18.3085 19.7354C18.1285 19.8675 17.9408 19.9891 17.7461 20.1L20.1081 23.7996C20.2997 23.684 20.4871 23.5622 20.6702 23.4346L18.3085 19.7354Z" fill="#F7F7F7"/>
<path d="M19.5225 18.5385C19.3698 18.741 19.2044 18.9333 19.0273 19.1139L22.3282 21.9935C22.5002 21.808 22.6653 21.6161 22.8234 21.4182L19.5225 18.5385Z" fill="#F7F7F7"/>
<path d="M12.9736 9.47036C13.1557 9.40637 13.3418 9.35132 13.5316 9.30556L12.3001 5.08595C12.1119 5.13574 11.926 5.19101 11.7422 5.25112L12.9736 9.47036Z" fill="#F7F7F7"/>
<path d="M10.9099 19.2687C10.6198 18.9944 10.358 18.6905 10.1286 18.3617L6.82227 21.2482C7.06514 21.5658 7.32611 21.8686 7.60358 22.1552L10.9099 19.2687Z" fill="#F7F7F7"/>
<path d="M9.22794 16.3393C9.15161 16.0108 9.10152 15.6721 9.08269 15.3248L4.75586 15.9528C4.78726 16.2962 4.83553 16.6347 4.89979 16.9675L9.22794 16.3393Z" fill="#F7F7F7"/>
<path d="M9.85364 17.9292C9.67002 17.6097 9.51554 17.2714 9.39378 16.9174L5.41406 18.7491C5.54949 19.096 5.70375 19.4334 5.87451 19.7606L9.85364 17.9292Z" fill="#F7F7F7"/>
<path d="M13.9167 20.7741C13.4592 20.6966 13.0195 20.5664 12.6049 20.388L11.3711 24.621C11.7957 24.7785 12.2337 24.9077 12.6827 25.0076L13.9167 20.7741Z" fill="#F7F7F7"/>
<path d="M12.3017 20.2459C11.9169 20.0531 11.5562 19.819 11.2256 19.5487L8.85938 23.2579C9.2022 23.5122 9.56146 23.7452 9.93525 23.9553L12.3017 20.2459Z" fill="#F7F7F7"/>
<path d="M9.08624 14.6333C9.10572 14.3165 9.1505 14.0068 9.21803 13.7056L4.89127 13.0792C4.83391 13.3839 4.78972 13.6933 4.75977 14.007L9.08624 14.6333Z" fill="#F7F7F7"/>
<path d="M15.8594 9.22593C16.3169 9.30339 16.7566 9.43364 17.1711 9.61205L18.405 5.37905C17.9804 5.22157 17.5424 5.09235 17.0934 4.99242L15.8594 9.22593Z" fill="#F7F7F7"/>
<path d="M11.4672 10.2646C11.6471 10.1325 11.8349 10.0109 12.0296 9.89997L9.66761 6.20038C9.47599 6.31591 9.28859 6.43773 9.10547 6.56534L11.4672 10.2646Z" fill="#F7F7F7"/>
<path d="M10.254 11.4615C10.4068 11.259 10.5721 11.0667 10.7492 10.8861L7.44839 8.00648C7.2764 8.19193 7.11123 8.38389 6.95312 8.58178L10.254 11.4615Z" fill="#F7F7F7"/>
<path d="M9.43745 12.9597C9.53609 12.6924 9.65342 12.4344 9.78805 12.1873L5.8132 10.3596C5.68613 10.6112 5.56946 10.869 5.46289 11.1321L9.43745 12.9597Z" fill="#F7F7F7"/>
</svg>
