<svg width="126" height="14" viewBox="0 0 126 14" fill="none" xmlns="http://www.w3.org/2000/svg">
<path d="M18.0235 0.193848H14.4492V13.805H18.0235V0.193848Z" fill="#888888"/>
<path d="M97.0557 0.193848H93.4814V13.805H97.0557V0.193848Z" fill="#888888"/>
<path d="M87.5236 0.193848V5.63829H82.7579V0.193848H79.1836V13.805H82.7579V8.36052H87.5236V13.805H91.0978V0.193848H87.5236Z" fill="#888888"/>
<path d="M125.253 2.91607V0.193848H118.105H114.53V13.805H118.105H125.253V11.0827H118.105V8.36052H124.657V5.63829H118.105V2.91607H125.253Z" fill="#888888"/>
<path d="M61.7078 13.805H65.2821L60.3178 0.193848H59.325H57.1407H56.1479L51.1836 13.805H54.7579L55.5408 11.4716H60.9249L61.7078 13.805ZM56.4542 8.7494L58.2328 3.44867L60.0115 8.7494H56.4542Z" fill="#888888"/>
<path d="M26.3634 0C26.2299 0 25.7026 0 25.5691 0C22.3887 0 19.8105 2.52461 19.8105 5.63889V8.36111C19.8105 11.4754 22.3887 14 25.5691 14C25.7026 14 26.2299 14 26.3634 14C29.5437 14 32.1219 11.4754 32.1219 8.36111V5.63889C32.1219 2.52461 29.5437 0 26.3634 0ZM26.1648 11.2778C26.0979 11.2778 25.8345 11.2778 25.7677 11.2778C24.4517 11.2778 23.3848 10.2331 23.3848 8.94444C23.3848 8.13278 23.3848 5.86723 23.3848 5.05556C23.3848 3.76689 24.4517 2.72222 25.7677 2.72222C25.8345 2.72222 26.0979 2.72222 26.1648 2.72222C27.4808 2.72222 28.5476 3.76689 28.5476 5.05556C28.5476 5.86723 28.5476 8.13278 28.5476 8.94444C28.5476 10.2331 27.4808 11.2778 26.1648 11.2778Z" fill="#888888"/>
<path d="M71.8357 11.2778C71.7687 11.2778 71.5054 11.2778 71.4386 11.2778C70.1226 11.2778 69.0557 10.2331 69.0557 8.94444V5.05556C69.0557 3.76689 70.1226 2.72222 71.4386 2.72222C71.5054 2.72222 71.7687 2.72222 71.8357 2.72222C73.042 2.72222 74.02 3.67984 74.02 4.86111H77.5624C77.2651 2.12856 74.9037 0 72.0343 0C71.9007 0 71.3735 0 71.24 0C68.0596 0 65.4814 2.52461 65.4814 5.63889V8.36111C65.4814 11.4754 68.0596 14 71.24 14C71.3735 14 71.9007 14 72.0343 14C74.9037 14 77.2651 11.8714 77.5624 9.13889H74.02C74.02 10.3202 73.042 11.2778 71.8357 11.2778Z" fill="#888888"/>
<path d="M10.2945 6.62063C11.3317 6.22532 12.0666 5.23813 12.0666 4.08274C12.0666 1.9349 10.2886 0.193848 8.09515 0.193848H0.748047V13.805H8.69086C10.8843 13.805 12.6623 12.0639 12.6623 9.91607C12.6623 8.39765 11.675 7.10518 10.2945 6.62063ZM8.49229 4.27718C8.49229 5.0289 7.86997 5.63829 7.1023 5.63829H4.32231V2.91607H7.1023C7.86997 2.91607 8.49229 3.52546 8.49229 4.27718ZM7.69801 11.0827H4.32231V8.36052H7.69801C8.46569 8.36052 9.08801 8.9699 9.08801 9.72163C9.08801 10.4733 8.46569 11.0827 7.69801 11.0827Z" fill="#888888"/>
<path d="M48.2053 0.193848H46.4181H45.4253L41.9503 10.1186L38.4753 0.193848H37.4825H35.6953H33.9082V13.805H37.4825V5.29802L40.461 13.805H40.6596H43.241H43.4396L46.4181 5.29802V13.805H49.9924V0.193848H48.2053Z" fill="#888888"/>
<path d="M108.574 0.193848V8.82528L103.411 0.193848H103.014H100.035H99.4395V13.805H103.014V5.17353L108.177 13.805H108.574H111.552H112.148V0.193848H108.574Z" fill="#888888"/>
</svg>
