<svg width="16" height="19" viewBox="0 0 16 19" fill="none" xmlns="http://www.w3.org/2000/svg">
<path d="M6.33333 2.49967C6.09722 2.49967 5.89944 2.41967 5.74 2.25967C5.58 2.10023 5.5 1.90245 5.5 1.66634C5.5 1.43023 5.58 1.23217 5.74 1.07217C5.89944 0.91273 6.09722 0.833008 6.33333 0.833008H9.66667C9.90278 0.833008 10.1008 0.91273 10.2608 1.07217C10.4203 1.23217 10.5 1.43023 10.5 1.66634C10.5 1.90245 10.4203 2.10023 10.2608 2.25967C10.1008 2.41967 9.90278 2.49967 9.66667 2.49967H6.33333ZM8 11.6663C8.23611 11.6663 8.43417 11.5863 8.59417 11.4263C8.75361 11.2669 8.83333 11.0691 8.83333 10.833V7.49967C8.83333 7.26356 8.75361 7.06551 8.59417 6.90551C8.43417 6.74606 8.23611 6.66634 8 6.66634C7.76389 6.66634 7.56611 6.74606 7.40667 6.90551C7.24667 7.06551 7.16667 7.26356 7.16667 7.49967V10.833C7.16667 11.0691 7.24667 11.2669 7.40667 11.4263C7.56611 11.5863 7.76389 11.6663 8 11.6663ZM8 18.333C6.97222 18.333 6.00333 18.1352 5.09333 17.7397C4.18389 17.3436 3.38889 16.8052 2.70833 16.1247C2.02778 15.4441 1.48944 14.6491 1.09333 13.7397C0.697778 12.8297 0.5 11.8608 0.5 10.833C0.5 9.80523 0.697778 8.83634 1.09333 7.92634C1.48944 7.0169 2.02778 6.2219 2.70833 5.54134C3.38889 4.86079 4.18389 4.32273 5.09333 3.92717C6.00333 3.53106 6.97222 3.33301 8 3.33301C8.86111 3.33301 9.6875 3.4719 10.4792 3.74967C11.2708 4.02745 12.0139 4.43023 12.7083 4.95801L13.3125 4.35384C13.4653 4.20106 13.6528 4.12467 13.875 4.12467C14.0972 4.12467 14.2917 4.20801 14.4583 4.37467C14.6111 4.52745 14.6875 4.7219 14.6875 4.95801C14.6875 5.19412 14.6111 5.38856 14.4583 5.54134L13.875 6.12467C14.4028 6.81912 14.8056 7.56217 15.0833 8.35384C15.3611 9.14551 15.5 9.9719 15.5 10.833C15.5 11.8608 15.3022 12.8297 14.9067 13.7397C14.5106 14.6491 13.9722 15.4441 13.2917 16.1247C12.6111 16.8052 11.8161 17.3436 10.9067 17.7397C9.99667 18.1352 9.02778 18.333 8 18.333Z" fill="#3C3C3C"/>
</svg>
