<svg width="68" height="68" viewBox="0 0 68 68" fill="none" xmlns="http://www.w3.org/2000/svg">
<path d="M30.5179 0.724655C27.8064 1.00276 24.7055 1.75365 21.9523 2.76873C18.9209 3.88115 18.907 3.92287 20.3671 6.85688C20.9511 8.03883 21.5629 9.13734 21.7298 9.30421C22.1192 9.73527 22.5641 9.70746 23.7878 9.19297C26.4715 8.09445 29.6141 7.427 32.8123 7.30185C42.1149 6.94031 50.9865 11.5291 56.1175 19.3716C61.9299 28.2293 61.9021 39.7846 56.048 48.6978C55.9368 48.8647 55.5335 48.531 53.9761 46.9875C52.3075 45.3328 51.9877 45.0825 51.5983 45.0825C51.3063 45.0825 51.0282 45.2076 50.8196 45.4301L50.472 45.7638V52.3132V58.8626L50.8196 59.1963L51.1534 59.5439H57.7027H64.2521L64.5858 59.1963C64.8083 58.9877 64.9335 58.7096 64.9335 58.4176C64.9335 58.0283 64.6693 57.6945 62.8338 55.8451L60.7202 53.7176L61.7492 52.1463C64.3912 48.0999 66.0737 43.6224 66.8385 38.686C67.1722 36.4751 67.1722 31.5944 66.8385 29.3556C65.7539 22.0414 62.4722 15.4781 57.369 10.3749C52.2519 5.27168 45.9111 2.08737 38.5552 0.933235C36.9005 0.669037 32.2422 0.557793 30.5179 0.724655Z" fill="#3C3C3C"/>
<path d="M2.98738 8.72002C2.7649 8.9286 2.63975 9.2067 2.63975 9.49871C2.63975 9.88806 2.90395 10.2218 4.75335 12.0712L6.85305 14.1987L6.06045 15.3806C0.248042 24.1271 -1.15639 34.9036 2.2504 44.7903C5.96311 55.5947 14.9737 63.7571 26.084 66.413C32.5917 67.9565 39.6139 67.4837 45.8156 65.092C48.6523 63.9935 48.6523 63.9796 47.2061 61.0595C46.0381 58.7095 45.7322 58.2923 45.2177 58.2923C45.023 58.2923 44.147 58.5704 43.257 58.9041C38.3624 60.7535 33.1479 61.129 28.0864 60.0026C25.8337 59.5021 24.2624 58.9598 22.1767 57.9447C11.122 52.5911 5.18441 40.5353 7.67346 28.4655C8.29919 25.3646 9.71753 21.9717 11.5252 19.2185C11.6365 19.0516 12.0397 19.3854 13.5971 20.9288C15.2657 22.5836 15.5856 22.8339 15.9749 22.8339C16.2669 22.8339 16.545 22.7087 16.7536 22.4862L17.1012 22.1525V15.6031V9.05374L16.7536 8.72002L16.4199 8.37238H9.87049H3.32111L2.98738 8.72002Z" fill="#3C3C3C"/>
<path d="M31.2563 16.4384C30.6444 16.7583 30.3663 17.2171 29.6989 18.9414L29.1705 20.2624L28.2527 20.6239L27.3211 20.9855L26.2087 20.4988C23.4554 19.3029 23.2051 19.3446 21.1889 21.3609C19.1726 23.3772 19.1309 23.6275 20.3267 26.3807L20.8134 27.4931L20.4519 28.4248L20.0903 29.3425L18.7693 29.8709C16.1273 30.8999 15.9883 31.1085 15.9883 33.9174C16.0022 36.8097 16.1412 37.0182 18.7693 38.0472L20.0903 38.5756L20.4519 39.4934L20.8134 40.425L20.3267 41.5374C19.1309 44.2907 19.1726 44.541 21.1889 46.5572C23.2051 48.5735 23.4554 48.6152 26.2087 47.4194L27.3211 46.9327L28.2527 47.2942L29.1705 47.6558L29.6989 48.9768C30.714 51.6049 30.9364 51.7578 33.787 51.7578C36.6376 51.7578 36.8601 51.6049 37.8752 48.9768L38.4036 47.6558L39.3213 47.2942L40.253 46.9327L41.3654 47.4194C44.1186 48.6152 44.3689 48.5735 46.3852 46.5572C48.4015 44.541 48.4432 44.2907 47.2473 41.5374L46.7606 40.425L47.1222 39.4934L47.4837 38.5756L48.8047 38.0472C51.4328 37.0321 51.5858 36.8097 51.5858 33.9591C51.5858 31.1085 51.4328 30.886 48.8047 29.8709L47.4837 29.3425L47.1222 28.4248L46.7606 27.4931L47.2473 26.3807C48.4432 23.6275 48.4015 23.3772 46.3852 21.3609C44.3689 19.3446 44.1186 19.3029 41.3654 20.4988L40.253 20.9855L39.3213 20.6239L38.4036 20.2624L37.8752 18.9414C36.8462 16.2994 36.6376 16.1603 33.7175 16.1742C32.0628 16.1742 31.6873 16.216 31.2563 16.4384ZM35.6503 25.2683C39.669 26.1165 42.6864 29.8431 42.6864 33.9591C42.6864 37.2407 40.7258 40.4111 37.8057 41.8573C35.1219 43.1783 32.4104 43.1783 29.7545 41.8573C26.1947 40.0774 24.2619 36.031 25.0962 32.0958C26.0974 27.3541 30.8808 24.2532 35.6503 25.2683Z" fill="#3C3C3C"/>
<path d="M32.1332 27.5055C28.6152 28.4511 26.432 32.1082 27.322 35.5567C28.2536 39.1164 31.8968 41.3274 35.387 40.4235C38.6826 39.5614 40.8518 36.3771 40.3651 33.0676C39.8089 29.1324 35.8876 26.4904 32.1332 27.5055Z" fill="#3C3C3C"/>
</svg>
