<svg width="988" height="112" viewBox="0 0 988 112" fill="none" xmlns="http://www.w3.org/2000/svg">
<path d="M137.562 2.41098H109.237V110.004H137.562V2.41098Z" fill="#F7F7F7"/>
<path d="M763.886 2.41098H735.561V110.004H763.886V2.41098Z" fill="#F7F7F7"/>
<path d="M688.347 2.41098V45.448H650.581V2.41098H622.256V110.004H650.581V66.9665H688.347V110.004H716.672V2.41098H688.347Z" fill="#F7F7F7"/>
<path d="M987.332 23.9298V2.41132H930.682H902.357V110.004H930.682H987.332V88.4854H930.682V66.9669H982.612V45.4484H930.682V23.9298H987.332Z" fill="#F7F7F7"/>
<path d="M483.75 110.004H512.075L472.735 2.41132H464.867H447.557H439.689L400.349 110.004H428.674L434.878 91.5595H477.546L483.75 110.004ZM442.117 70.0409L456.212 28.1399L470.307 70.0409H442.117Z" fill="#F7F7F7"/>
<path d="M203.673 0.865417C202.615 0.865417 198.437 0.865417 197.379 0.865417C172.175 0.865417 151.744 20.8218 151.744 45.4395V66.958C151.744 91.5757 172.175 111.532 197.379 111.532C198.437 111.532 202.615 111.532 203.673 111.532C228.877 111.532 249.308 91.5757 249.308 66.958V45.4395C249.308 20.8218 228.877 0.865417 203.673 0.865417ZM202.1 90.0136C201.57 90.0136 199.482 90.0136 198.952 90.0136C188.524 90.0136 180.069 81.7557 180.069 71.5691C180.069 65.1531 180.069 47.2444 180.069 40.8284C180.069 30.6418 188.524 22.3839 198.952 22.3839C199.482 22.3839 201.57 22.3839 202.1 22.3839C212.529 22.3839 220.983 30.6418 220.983 40.8284C220.983 47.2444 220.983 65.1531 220.983 71.5691C220.983 81.7557 212.529 90.0136 202.1 90.0136Z" fill="#F7F7F7"/>
<path d="M564.04 90.0136C563.509 90.0136 561.423 90.0136 560.893 90.0136C550.464 90.0136 542.01 81.7557 542.01 71.5691V40.8284C542.01 30.6418 550.464 22.3839 560.893 22.3839C561.423 22.3839 563.509 22.3839 564.04 22.3839C573.6 22.3839 581.35 29.9537 581.35 39.2913H609.423C607.067 17.6912 588.353 0.865417 565.614 0.865417C564.555 0.865417 560.377 0.865417 559.319 0.865417C534.116 0.865417 513.685 20.8218 513.685 45.4395V66.958C513.685 91.5757 534.116 111.532 559.319 111.532C560.377 111.532 564.555 111.532 565.614 111.532C588.353 111.532 607.067 94.7063 609.423 73.1062H581.35C581.35 82.4438 573.6 90.0136 564.04 90.0136Z" fill="#F7F7F7"/>
<path d="M76.3189 53.2131C84.5378 50.0883 90.3618 42.2848 90.3618 33.1517C90.3618 16.1736 76.2717 2.41098 58.8896 2.41098H0.666016V110.004H63.6104C80.9925 110.004 95.0826 96.2409 95.0826 79.2628C95.0826 67.2601 87.2586 57.0434 76.3189 53.2131ZM62.0368 34.6888C62.0368 40.6309 57.1051 45.448 51.0215 45.448H28.991V23.9295H51.0215C57.1051 23.9295 62.0368 28.7466 62.0368 34.6888ZM55.7424 88.4851H28.991V66.9665H55.7424C61.8259 66.9665 66.7576 71.7836 66.7576 77.7258C66.7576 83.668 61.8259 88.4851 55.7424 88.4851Z" fill="#F7F7F7"/>
<path d="M376.742 2.41132H362.58H354.712L327.174 80.8643L299.635 2.41132H291.767H277.605H263.442V110.004H291.767V42.7585L315.372 110.004H316.945H337.402H338.976L362.58 42.7585V110.004H390.905V2.41132H376.742Z" fill="#F7F7F7"/>
<path d="M855.139 2.41132V70.6407L814.225 2.41132H811.078H787.474H782.753V110.004H811.078V41.7745L851.992 110.004H855.139H878.743H883.464V2.41132H855.139Z" fill="#F7F7F7"/>
</svg>
