<svg width="26" height="35" viewBox="0 0 26 35" xmlns="http://www.w3.org/2000/svg">
<path d="M3.25 35C2.35625 35 1.59142 34.6739 0.9555 34.0217C0.3185 33.3683 0 32.5833 0 31.6667V15C0 14.0833 0.3185 13.2983 0.9555 12.645C1.59142 11.9928 2.35625 11.6667 3.25 11.6667H4.875V8.33333C4.875 6.02778 5.66746 4.06222 7.25238 2.43667C8.83621 0.812222 10.7521 0 13 0C15.2479 0 17.1643 0.812222 18.7493 2.43667C20.3331 4.06222 21.125 6.02778 21.125 8.33333V11.6667H22.75C23.6437 11.6667 24.4091 11.9928 25.0461 12.645C25.682 13.2983 26 14.0833 26 15V31.6667C26 32.5833 25.682 33.3683 25.0461 34.0217C24.4091 34.6739 23.6437 35 22.75 35H3.25ZM13 26.6667C13.8938 26.6667 14.6591 26.3406 15.2961 25.6883C15.932 25.035 16.25 24.25 16.25 23.3333C16.25 22.4167 15.932 21.6317 15.2961 20.9783C14.6591 20.3261 13.8938 20 13 20C12.1062 20 11.3414 20.3261 10.7055 20.9783C10.0685 21.6317 9.75 22.4167 9.75 23.3333C9.75 24.25 10.0685 25.035 10.7055 25.6883C11.3414 26.3406 12.1062 26.6667 13 26.6667ZM8.125 11.6667H17.875V8.33333C17.875 6.94444 17.401 5.76389 16.4531 4.79167C15.5052 3.81944 14.3542 3.33333 13 3.33333C11.6458 3.33333 10.4948 3.81944 9.54688 4.79167C8.59896 5.76389 8.125 6.94444 8.125 8.33333V11.6667Z"/>
</svg>
