<svg width="198" height="40" viewBox="0 0 198 40" xmlns="http://www.w3.org/2000/svg">
<path d="M150.31 17.0093H141.263V6.3801H134.479V32.9531H141.263V22.3239H150.31V32.9531H157.094V6.3801H150.31V17.0093Z"  />
<path d="M197.801 26.8793H190.263V32.9531H197.801V26.8793Z"  />
<path d="M66.6595 18.9272C68.6283 18.1554 70.0233 16.2281 70.0233 13.9724C70.0233 9.77916 66.6483 6.3801 62.4846 6.3801H48.5381V32.9531H63.6155C67.7791 32.9531 71.1541 29.554 71.1541 25.3608C71.154 22.3965 69.28 19.8731 66.6595 18.9272ZM55.3229 11.6948H60.5999C62.0572 11.6948 63.2384 12.8845 63.2384 14.352C63.2384 15.8196 62.0571 17.0093 60.5999 17.0093H55.3229V11.6948ZM61.7307 27.6386H55.3229V22.324H61.7307C63.1879 22.324 64.3692 23.5137 64.3692 24.9812C64.3692 26.4489 63.188 27.6386 61.7307 27.6386Z"  />
<path d="M119.776 11.315C119.903 11.315 120.402 11.315 120.53 11.315C122.819 11.315 124.676 13.1845 124.676 15.4908H131.4C130.836 10.156 126.353 6.00044 120.907 6.00044C120.653 6.00044 119.652 6.00044 119.399 6.00044C113.362 6.00044 108.468 10.9292 108.468 17.0093V22.3238C108.468 28.4039 113.362 33.3327 119.399 33.3327C119.652 33.3327 120.653 33.3327 120.907 33.3327C126.353 33.3327 130.836 29.1771 131.4 23.8423H124.676C124.676 26.1485 122.82 28.0181 120.53 28.0181C120.402 28.0181 119.903 28.0181 119.776 28.0181C117.278 28.0181 115.252 25.9786 115.252 23.4627V15.8704C115.252 13.3546 117.278 11.315 119.776 11.315Z"  />
<path d="M98.2927 6.3801H96.4081L89.8117 25.7562L83.2154 6.3801H81.3307H77.9383H74.5459V32.9531H81.3307V16.3449L86.9848 32.9531H87.3617H92.2618H92.6387L98.2927 16.3449V32.9531H105.077V6.3801H101.685H98.2927Z"  />
<path d="M178.955 23.2313L169.155 6.3801H168.401H162.747H161.616V32.9531H168.401V16.1019L178.201 32.9531H178.955H184.609H185.74V6.3801H178.955V23.2313Z"  />
<path d="M7.36297 25.7524C7.23047 25.4848 7.10641 25.2126 6.99136 24.9361L1.69922 27.3718C1.72927 27.4421 1.76038 27.512 1.7913 27.582L1.9552 27.9431C1.99339 28.025 2.03099 28.1071 2.07025 28.1884L7.36297 25.7524Z"  />
<path d="M9.59987 28.995C9.37045 28.7474 9.15033 28.4914 8.9399 28.2276L4.54297 32.0661C4.646 32.1924 4.75039 32.3174 4.85662 32.4411L4.89016 32.4801C4.9929 32.5992 5.09719 32.717 5.20284 32.8336L9.59987 28.995Z"  />
<path d="M16.2922 32.9418C15.8869 32.8426 15.4899 32.7251 15.1015 32.591L13.4619 38.216C13.5706 38.2518 13.6798 38.2866 13.7894 38.3205L14.3118 38.475C14.4249 38.5066 14.5389 38.5362 14.6528 38.5657L16.2922 32.9418Z"  />
<path d="M8.71867 11.3849C9.06489 10.928 9.43844 10.4947 9.83671 10.0872L5.43415 6.24645C5.27878 6.41152 5.1269 6.58 4.97715 6.75064L4.71991 7.04973C4.58295 7.21235 4.44832 7.37713 4.31641 7.54444L8.71867 11.3849Z"  />
<path d="M6.8163 14.8374C7.03235 14.2595 7.28484 13.7018 7.57174 13.1674L2.27243 10.7307C2.19557 10.8811 2.12045 11.0326 2.04727 11.1854L1.72722 11.8914C1.65472 12.0598 1.58455 12.2295 1.5166 12.4005L6.8163 14.8374Z"  />
<path d="M12.6579 31.4626C12.3334 31.2711 12.0176 31.0671 11.712 30.8505L8.56641 35.7814C8.60964 35.8113 8.65219 35.8417 8.69571 35.8712L9.35063 36.295C9.40423 36.3283 9.45735 36.3623 9.51133 36.3951L12.6579 31.4626Z"  />
<path d="M30.3114 27.9485C29.9652 28.4054 29.5916 28.8387 29.1934 29.2462L33.5959 33.0869C33.7513 32.9219 33.9032 32.7534 34.0529 32.5827L34.3102 32.2838C34.4471 32.1211 34.5817 31.9564 34.7137 31.789L30.3114 27.9485Z"  />
<path d="M32.2125 24.4958C31.9964 25.0737 31.7439 25.6314 31.457 26.1658L36.7563 28.6025C36.8332 28.4521 36.9083 28.3006 36.9815 28.1478L37.3016 27.4419C37.3741 27.2735 37.4442 27.1037 37.5122 26.9327L32.2125 24.4958Z"  />
<path d="M20.1989 33.317C19.7506 33.3393 19.2978 33.3392 18.8418 33.3158L18.8438 39.1785C18.9883 39.1838 19.1327 39.1878 19.2766 39.1897L19.796 39.1895C19.9311 39.1878 20.0663 39.1853 20.2009 39.1806L20.1989 33.317Z"  />
<path d="M27.5096 30.7083C27.0814 31.0228 26.6351 31.3121 26.1729 31.5747L29.3218 36.5069C29.5386 36.3786 29.7534 36.2471 29.965 36.1105L30.0096 36.0816C30.229 35.9392 30.445 35.7918 30.6586 35.6407L27.5096 30.7083Z"  />
<path d="M24.0438 32.5512C23.5826 32.716 23.1112 32.857 22.6309 32.9712L24.2727 38.5965C24.3919 38.566 24.5106 38.5345 24.629 38.5018L25.3684 38.2828C25.4748 38.2489 25.5803 38.2132 25.686 38.1774L24.0438 32.5512Z"  />
<path d="M11.5201 8.62516C11.9482 8.31064 12.3946 8.02131 12.8568 7.75873L9.70789 2.82653C9.49107 2.95479 9.27628 3.08638 9.06469 3.22294L9.02011 3.25184C8.80067 3.39426 8.58462 3.54165 8.37109 3.69276L11.5201 8.62516Z"  />
<path d="M38.7528 17.2445L38.6457 16.4956L32.8867 17.3314C32.9307 17.5871 32.9678 17.8448 32.9973 18.1043L38.7558 17.2687C38.7548 17.2605 38.7538 17.2525 38.7528 17.2445Z"  />
<path d="M0.274392 22.0894L0.381495 22.8378L6.14053 22.002C6.09652 21.7462 6.0594 21.4886 6.02993 21.2291L0.271484 22.0648C0.272454 22.073 0.273423 22.0812 0.274392 22.0894Z"  />
<path d="M31.665 13.581C31.7975 13.8486 31.9216 14.1208 32.0367 14.3973L37.3288 11.9616C37.2987 11.8913 37.2676 11.8214 37.2367 11.7514L37.0728 11.3903C37.0346 11.3084 36.997 11.2263 36.9578 11.145L31.665 13.581Z"  />
<path d="M5.97889 18.6934C6.00206 18.371 6.03598 18.0471 6.08231 17.7221C6.12864 17.3972 6.1868 17.0769 6.25465 16.7609L0.487668 15.926C0.426314 16.2438 0.372132 16.5647 0.325899 16.8888C0.279665 17.2129 0.241961 17.5361 0.211914 17.8585L5.97889 18.6934Z"  />
<path d="M33.0503 20.6399C33.0271 20.9623 32.9932 21.2861 32.9468 21.6111C32.9004 21.9361 32.8424 22.2563 32.7744 22.5723L38.5414 23.4072C38.6027 23.0894 38.6569 22.7684 38.7032 22.4444C38.7494 22.1205 38.7871 21.7971 38.8171 21.4748L33.0503 20.6399Z"  />
<path d="M18.8311 6.01636C19.2794 5.99411 19.7322 5.99421 20.1882 6.01754L20.1862 0.154872C20.0416 0.149601 19.8973 0.145599 19.7534 0.143646L19.234 0.143841C19.0988 0.145598 18.9637 0.148039 18.8291 0.152725L18.8311 6.01636Z"  />
<path d="M22.7354 6.39143C23.1407 6.4907 23.5377 6.60813 23.9261 6.74226L25.5657 1.11728C25.457 1.08146 25.3478 1.04671 25.2382 1.01274L24.7158 0.858311C24.6027 0.826683 24.4887 0.797106 24.3747 0.767529L22.7354 6.39143Z"  />
<path d="M29.4307 10.3382C29.6601 10.5859 29.8802 10.8418 30.0906 11.1057L34.4876 7.26716C34.3845 7.14084 34.2801 7.0158 34.1739 6.89212L34.1404 6.85317C34.0376 6.73408 33.9333 6.61626 33.8277 6.49961L29.4307 10.3382Z"  />
<path d="M14.9868 6.78201C15.4481 6.61714 15.9195 6.47618 16.3998 6.36197L14.758 0.736706C14.6397 0.766869 14.5218 0.798301 14.4042 0.83071L13.661 1.05073C13.5552 1.08461 13.4499 1.12004 13.3447 1.15577L14.9868 6.78201Z"  />
<path d="M26.3711 7.87059C26.6956 8.06211 27.0114 8.26613 27.317 8.48273L30.4626 3.5518C30.4194 3.52193 30.3768 3.49148 30.3333 3.462L29.6784 3.03825C29.6248 3.00497 29.5717 2.9709 29.5177 2.9381L26.3711 7.87059Z"  />
<path d="M22.9648 12.6721C23.4779 12.9291 23.9588 13.2412 24.3995 13.6016L27.5546 8.65604C27.0975 8.31702 26.6185 8.00631 26.1201 7.72616L22.9648 12.6721Z"  />
<path d="M27.2529 20.1556C27.2269 20.5779 27.1672 20.9909 27.0771 21.3924L32.8462 22.2276C32.9226 21.8214 32.9816 21.4088 33.0215 20.9907L27.2529 20.1556Z"  />
<path d="M24.8242 13.9751C25.211 14.3409 25.5601 14.7461 25.8659 15.1845L30.2743 11.3358C29.9505 10.9123 29.6026 10.5086 29.2326 10.1265L24.8242 13.9751Z"  />
<path d="M26.7868 22.387C26.6553 22.7433 26.4988 23.0873 26.3193 23.4169L31.6191 25.8538C31.7886 25.5183 31.9441 25.1745 32.0862 24.8238L26.7868 22.387Z"  />
<path d="M26.2305 15.761C26.4753 16.1869 26.6813 16.638 26.8436 17.11L32.1499 14.6678C31.9693 14.2052 31.7637 13.7554 31.5361 13.319L26.2305 15.761Z"  />
<path d="M27.0645 17.8806C27.1662 18.3187 27.233 18.7703 27.2581 19.2333L33.0272 18.396C32.9853 17.9381 32.921 17.4869 32.8353 17.0431L27.0645 17.8806Z"  />
<path d="M19.5181 11.8574C19.8466 11.8574 20.1695 11.8803 20.4873 11.9203V6.03554C20.1671 6.01279 19.844 6.0005 19.5181 6.0005C19.1921 6.0005 18.869 6.01279 18.5488 6.03554V11.9203C18.8666 11.8803 19.1896 11.8574 19.5181 11.8574Z"  />
<path d="M19.5181 27.4757C19.1896 27.4757 18.8666 27.4528 18.5488 27.4129V33.2976C18.8691 33.3203 19.1921 33.3326 19.5181 33.3326C19.844 33.3326 20.1671 33.3203 20.4873 33.2976V27.4129C20.1696 27.4528 19.8466 27.4757 19.5181 27.4757Z"  />
<path d="M23.7132 32.6651L22.0712 27.0395C21.8284 27.1248 21.5803 27.1982 21.3271 27.2592L22.9692 32.8853C23.2202 32.8191 23.4681 32.7454 23.7132 32.6651Z"  />
<path d="M24.077 25.9805C23.8371 26.1566 23.5867 26.3187 23.3271 26.4666L26.4765 31.3994C26.732 31.2454 26.9818 31.0829 27.226 30.9128L24.077 25.9805Z"  />
<path d="M25.6954 24.3847C25.4918 24.6547 25.2713 24.911 25.0352 25.1518L29.4363 28.9913C29.6656 28.744 29.8858 28.4881 30.0966 28.2242L25.6954 24.3847Z"  />
<path d="M16.9641 12.2938C17.2069 12.2085 17.455 12.1351 17.7082 12.0741L16.0662 6.44792C15.8152 6.5143 15.5673 6.588 15.3223 6.66814L16.9641 12.2938Z"  />
<path d="M14.2118 25.3583C13.8251 24.9925 13.476 24.5873 13.1702 24.1489L8.76172 27.9976C9.08555 28.4211 9.43351 28.8248 9.80348 29.2069L14.2118 25.3583Z"  />
<path d="M11.9696 21.4524C11.8678 21.0143 11.8011 20.5628 11.7759 20.0998L6.00684 20.937C6.04871 21.3949 6.11307 21.8462 6.19875 22.29L11.9696 21.4524Z"  />
<path d="M12.8042 23.5722C12.5594 23.1462 12.3534 22.6951 12.1911 22.2232L6.88477 24.6654C7.06534 25.128 7.27101 25.5778 7.49869 26.0142L12.8042 23.5722Z"  />
<path d="M18.2213 27.3654C17.6112 27.2622 17.025 27.0885 16.4723 26.8506L14.8271 32.4946C15.3933 32.7046 15.9773 32.8769 16.576 33.0101L18.2213 27.3654Z"  />
<path d="M16.0682 26.6611C15.5552 26.4041 15.0743 26.092 14.6335 25.7316L11.4785 30.6772C11.9356 31.0162 12.4146 31.3269 12.913 31.6071L16.0682 26.6611Z"  />
<path d="M11.7803 19.1777C11.8063 18.7553 11.866 18.3424 11.9561 17.9408L6.18706 17.1056C6.11058 17.5119 6.05165 17.9244 6.01172 18.3426L11.7803 19.1777Z"  />
<path d="M20.8115 11.9679C21.4216 12.0712 22.0078 12.2448 22.5605 12.4827L24.2057 6.83873C23.6395 6.62876 23.0555 6.45646 22.4568 6.32322L20.8115 11.9679Z"  />
<path d="M14.9557 13.3527C15.1955 13.1766 15.4459 13.0145 15.7055 12.8666L12.5562 7.93382C12.3007 8.08785 12.0508 8.25028 11.8066 8.42043L14.9557 13.3527Z"  />
<path d="M13.3377 14.9486C13.5414 14.6786 13.7619 14.4223 13.998 14.1815L9.59688 10.342C9.36755 10.5892 9.14734 10.8452 8.93652 11.109L13.3377 14.9486Z"  />
<path d="M12.2486 16.9462C12.3802 16.5899 12.5366 16.2459 12.7161 15.9164L7.4163 13.4794C7.24688 13.8149 7.09131 14.1587 6.94922 14.5094L12.2486 16.9462Z"  />
</svg>
